<?xml version="1.0" encoding="utf-8"?>
<!-- Generator: Adobe Illustrator 16.0.0, SVG Export Plug-In . SVG Version: 6.00 Build 0)  -->
<!DOCTYPE svg PUBLIC "-//W3C//DTD SVG 1.0//EN" "http://www.w3.org/TR/2001/REC-SVG-20010904/DTD/svg10.dtd" [
	<!ENTITY ns_flows "http://ns.adobe.com/Flows/1.0/">
	<!ENTITY ns_extend "http://ns.adobe.com/Extensibility/1.0/">
	<!ENTITY ns_ai "http://ns.adobe.com/AdobeIllustrator/10.0/">
	<!ENTITY ns_graphs "http://ns.adobe.com/Graphs/1.0/">
]>
<svg version="1.0" xmlns:x="&ns_extend;" xmlns:i="&ns_ai;" xmlns:graph="&ns_graphs;"
	 xmlns="http://www.w3.org/2000/svg" xmlns:xlink="http://www.w3.org/1999/xlink" xmlns:a="http://ns.adobe.com/AdobeSVGViewerExtensions/3.0/"
	 x="0px" y="0px" width="1400px" height="980px" viewBox="0 0 1400 980" enable-background="new 0 0 1400 980" xml:space="preserve"
	>
<g id="Background">
	<rect fill="#FFFEFD" width="1400" height="980"/>
</g>
<g id="Elements">
	<g>
		<g>
			<g>
				<path fill="#F5F6F7" d="M1210,884.4c0-59.8-7.2-119.4-21.6-177.6c-5.5-22.1-17.8-45.9-19.9-68.2c-2.3-24.4,11.7-46.9,13.3-70.9
					c4.1-60.3-14.7-125.9-62.4-169.2c-19-17.2-41.4-31.3-67.7-36.4c-27.8-5.3-66.6,6.9-92-2.8c-24.1-9.2-41.7-29.5-63.7-41.9
					c-25.9-14.5-56.9-24.6-86-32.1c-38.9-10-79.9-5.3-119.2-12.8c-35.6-6.8-64.4-30.6-101.6-30.6c-55.5,0-102.9,42.1-121.7,101.4
					c-9.5,29.7-61.1,55.7-88.5,70.1c-38.8,20.5-89.4,15.1-124.5,41.9c-47.3,36.2-68.9,93.3-68.9,148.9c0,44.1,29.6,83.7,28.1,128.3
					c-1.7,50.6-14.9,100.5-14.9,151.8C198.8,884.4,1210,884.4,1210,884.4z"/>
				<ellipse fill="#E5E9EA" cx="694.1" cy="888.6" rx="512.5" ry="26.8"/>
			</g>
		</g>
		<g>
			<g>
				<path fill="#B0D3D5" d="M1271,629c-6.3-2.9-14-0.2-19.5,3.3c-8.6,5.5-15.1,14.4-20.1,23.2c-3.5,6-6.2,12.3-7.3,19.3
					c-1.1,1.5-2.2,3.2-3,5l0.2,0.1c-0.3,0.7-1.8,3.9-4.3,9c-0.8-2-1.3-5.4-0.8-11.3c2.9-6.9,8.1-12.9,11.8-19.5
					c5.7-9.9,12.3-21.3,10.5-33.1c-0.6-5.2-3.7-10.2-9.6-9.2c-6.9,1-11.9,7.3-14.7,13.3c-4.3,9.3-5,20.2-4.5,30.4
					c0.3,6.9,1.5,13.8,4.2,20.3c-0.2,4.8,0.2,8.7,1.6,11.1l0.7-0.4c-5.7,11.7-15.9,32-29.1,55.4c-0.7-2-1.1-5.4-0.6-10.8
					c2.9-6.9,8.1-12.9,11.8-19.5c5.7-9.9,12.3-21.3,10.5-33.1c-0.6-5.2-3.7-10.2-9.6-9.2c-6.9,1-11.9,7.3-14.7,13.3
					c-4.3,9.3-5,20.2-4.5,30.4c0.3,6.9,1.5,13.8,4.2,20.3c-0.2,4.7,0.2,8.6,1.6,11c-4.2,7.5-8.7,15.2-13.5,23.1
					c-3.5,5.8-7.2,11.9-11.2,18.1c3-7.8,5.5-16.2,7.7-25.1c5.5-9.5,11.2-20.2,9.5-31.3c-0.3-2.4-1.2-4.8-2.6-6.6
					c3.1-23.6,4.4-48.2,4.8-70.4c2.5-1.1,5.2-3.9,7.8-7.8c6.1-3.5,11.2-8.2,15.6-13.6c6.5-7.8,12.6-16.9,14.8-26.9
					c1.4-6.4,1.2-14.5-3.7-19.4c-4.1-4.3-9.6-2.2-13.2,1.5c-8.6,8.3-10.2,21.3-11.6,32.7c-1,7.5-0.5,15.4-2.3,22.7
					c-3.1,4.8-5.5,7.3-7.3,8.4c0.1-4.1,0.1-8.2,0.1-12.2c0-18.6-0.5-36.3-1.3-51.6c1.9-1.8,3.6-4.9,5.1-8.8c5.1-4.8,9-10.6,12-16.8
					c4.5-9.1,8.4-19.4,8.2-29.6c-0.2-6.5-2.2-14.3-8.1-18c-5-3.2-9.9,0.1-12.5,4.6c-6.5,10-5,23.1-3.7,34.5c0.7,7.5,3.1,15.1,3,22.6
					c-1.4,4.2-2.8,6.9-4.1,8.6c-1.5-29.2-3.6-49-3.7-49.4l-0.2,0c-0.2-2.5,0-5.1,0.3-7.5c3.1-6.8,8.5-12.7,12.4-19.1
					c6-9.7,12.9-20.9,11.4-32.8c-0.5-5.2-3.4-10.3-9.4-9.5c-6.9,0.8-12.1,7-15,12.8c-4.5,9.1-5.5,20.1-5.3,30.2
					c0.1,6.9,1.1,13.7,3.6,20.3c-0.1,1.9-0.2,3.9,0,5.9l0.2,0c0.1,0.8,0.5,4.3,0.9,9.9c-1.7-1.3-3.9-4-6.5-9.2
					c-1-7.4,0.3-15.2,0.1-22.8c-0.2-11.4-0.4-24.6-8-33.7c-3.2-4.1-8.4-6.8-13-3c-5.4,4.4-6.4,12.4-5.8,18.9
					c1.1,10.1,6.2,19.9,11.8,28.3c3.8,5.8,8.3,11,14.1,15.2c2.3,4.2,4.7,7.3,7.1,8.7l0.4-0.7c1.1,13,2.8,35.6,3.5,62.5
					c-1.6-1.4-3.7-4-6.1-9c-1-7.4,0.3-15.2,0.1-22.8c-0.2-11.4-0.4-24.6-8-33.7c-3.2-4.1-8.4-6.8-13-3c-5.4,4.4-6.4,12.4-5.8,18.9
					c1.1,10.1,6.2,19.9,11.8,28.3c3.8,5.8,8.3,11,14.1,15.2c2.2,4.2,4.6,7.3,7,8.6c0.2,8.6,0.4,17.6,0.3,26.8
					c0,9.4-0.2,19.3-0.5,29.6c-1.7-1.4-3.7-4-6.1-9c-1-7.4,0.3-15.2,0.1-22.8c-0.2-11.4-0.4-24.6-8-33.7c-3.2-4.1-8.4-6.8-13-3
					c-5.4,4.4-6.4,12.4-5.7,18.9c1.1,10.1,6.2,19.9,11.8,28.3c3.8,5.8,8.3,11,14.1,15.2c2.2,4.1,4.5,7.1,6.9,8.5
					c-0.5,11.7-1.2,23.7-2.4,35.6c-2-0.7-4.8-2.9-8.8-7.9c-2.6-7-2.9-14.9-4.7-22.3c-2.6-11.1-5.6-24-15-31.3
					c-4-3.3-9.7-4.9-13.3-0.1c-4.3,5.4-3.6,13.5-1.6,19.7c3.2,9.7,10.2,18.1,17.5,25.2c4.9,4.9,10.5,9,16.9,11.9
					c3.1,3.6,6.1,6.2,8.7,7c-0.4,4.5-0.9,8.9-1.5,13.3c-1.4-0.8-3.1-1.2-5.1-0.9c-6.9,1-11.9,7.3-14.7,13.3
					c-4.3,9.3-5,20.2-4.5,30.4c0.3,6.9,1.5,13.8,4.2,20.3c-0.2,4.4,0.2,8.1,1.3,10.5c-0.3,0.7-0.6,1.3-1,2
					c-11.1,16.8-23.4,34-36.4,49.6c-0.7-2-1.2-5.4-0.7-11c2.9-6.9,8.1-12.9,11.8-19.5c5.7-9.9,12.3-21.3,10.5-33.1
					c-0.6-5.2-3.7-10.2-9.6-9.2c-6.9,1-11.9,7.3-14.7,13.3c-4.3,9.3-5,20.2-4.5,30.4c0.3,6.9,1.5,13.8,4.2,20.3
					c-0.2,4.6,0.2,8.3,1.4,10.7c-6.3,7.4-12.7,14.4-19.1,20.8c0.7,0.3,1.4,0.6,2.2,0.8c11.5-11.4,22.8-24.8,33.4-38.8
					c0.7,0,1.5,0,2.3-0.1c2.3-0.3,5-1.2,8-2.6c7.1,0.1,13.9-1.3,20.4-3.6c9.6-3.3,19.5-8,26.5-15.4c4.5-4.8,8.5-11.8,6.8-18.5
					c-1.3-5.8-7.1-6.8-12.1-5.5c-11.6,2.7-19.8,13-26.8,22c-4.7,5.9-8.4,12.9-13.7,18.2c-4.6,2.3-7.7,3.2-9.8,3.4
					c6.9-9.3,13.6-18.8,19.9-28.2l0.3,0.2c0.5-1,1-2,1.5-3c3.7-5.6,7.2-11.1,10.6-16.5c0.8,0.1,1.8,0.1,2.8-0.1
					c2.3-0.3,5-1.2,7.9-2.6c7.1,0.1,13.9-1.3,20.4-3.6c9.6-3.3,19.5-8,26.5-15.4c4.5-4.8,8.5-11.8,6.8-18.5
					c-1.3-5.8-7.1-6.8-12.1-5.5c-11.6,2.7-19.8,13-26.8,22c-4.7,5.9-8.4,12.9-13.7,18.2c-5.1,2.6-8.4,3.4-10.6,3.5
					c2.2-3.5,4.3-7,6.3-10.4c9.6-16,18.2-31.4,25.5-44.9c2.5-0.6,5.6-2.3,8.9-4.9c6.9-1.5,13.2-4.5,19-8.2
					c8.6-5.4,17.1-12.3,22.2-21.2c3.2-5.7,5.5-13.4,2.4-19.6c-2.6-5.3-8.5-5-13.1-2.5c-10.7,5.3-16.2,17.3-21,27.6
					c-3.2,6.8-5.1,14.5-9.1,20.9c-3.4,2.9-6,4.5-7.9,5.3c13.7-25.8,22.1-43.9,22.3-44.2l-0.2-0.1c1.1-2.3,2.6-4.4,4.1-6.3
					c6.2-4.2,13.8-6.5,20.4-10c10.1-5.2,21.8-11.3,26.6-22.2C1276.4,637.2,1276.5,631.4,1271,629z M1155.9,785.5
					c2.2-5.3,5.8-10,9-14.9c-2.4,8.9-5.3,17.3-8.6,24.8C1155.7,793.3,1155.5,790.2,1155.9,785.5z"/>
				<g>
					<path fill="#FEB238" d="M1118.4,876.1h6.3c2.1-3.7,3.9-7.8,5.9-11.4c3.4-5.9,7-11.7,10.7-17.4c8.2-12.4,17.5-21.9,32.3-25.7
						c2.2-0.6,4.3-1.3,6-2.9c1.7-1.6,3-4.2,2.6-6.6c-0.3-1.8-2.4-2.1-4.1-1.9c-0.2-0.1-0.5-0.1-0.7-0.1c-0.3,0.1-0.6,0.2-0.8,0.4
						c-1,0.4-2,0.9-2.9,1.4c-1.3,0.7-2.6,1.4-3.9,2.3c-5.8,3.9-10.8,8.5-15.6,13.6c-2.5,2.7-5,5.4-7.3,8.3c2.1-3.7,4.2-7.4,5.9-11.2
						c2.2-4.8,4-9.8,5.7-14.8c2.2-6.6,4-13.2,4.6-20.2c0.1-1.5,0.2-3,0.2-4.5c0-1.1,0-2.2-0.1-3.2c0-0.3,0-0.6,0-0.9
						c0-0.2-0.2-0.4-0.4-0.6c-0.6-1.6-1.9-3.3-3.7-2.7c-2.3,0.8-4,3.1-4.6,5.4c-0.6,2.2-0.2,4.5,0.3,6.7c3.7,14.8-0.3,27.5-7.4,40.6
						c-1.7,3.1-3.6,6.2-5.3,9.3c-0.6,1-1.2,2.1-1.7,3.1c0.4-1.2,0.8-2.4,1.3-3.6c2.2-6.6,4-13.2,4.6-20.2c0.1-1.5,0.2-3,0.2-4.5
						c0-1.1,0-2.2-0.1-3.2c0-0.3,0-0.6,0-0.9c0-0.2-0.2-0.4-0.4-0.6c-0.6-1.6-1.9-3.3-3.7-2.7c-2.3,0.8-4,3.1-4.6,5.4
						c-0.6,2.2-0.2,4.5,0.3,6.7c3.6,14.6-0.2,27.2-7.1,40.1c-1.7,2.6-3.4,5.3-5.1,7.9c-1.4,2.1-2.7,4.3-3.9,6.5
						c-0.1,0.2-0.2,0.4-0.4,0.6c0.1-0.2,0.1-0.4,0.2-0.6c2.2-6.6,4-13.2,4.6-20.2c0.1-1.5,0.2-3,0.2-4.5c0-1.1,0-2.2-0.1-3.2
						c0-0.3,0-0.6,0-0.9c0-0.2-0.2-0.4-0.4-0.6c-0.6-1.6-1.9-3.3-3.7-2.7c-2.3,0.8-4,3.1-4.6,5.4c-0.6,2.2-0.2,4.5,0.3,6.7
						C1120.3,861.6,1120.1,869,1118.4,876.1z"/>
					<path fill="#FEB238" d="M1151.2,862.6c2.2-0.6,4.3-1.3,6-2.9c1.7-1.6,3-4.2,2.6-6.6c-0.3-1.8-2.4-2.1-4.1-1.9
						c-0.2-0.1-0.5-0.1-0.7-0.1c-0.3,0.1-0.6,0.2-0.8,0.4c-1,0.4-2,0.9-2.9,1.4c-1.3,0.7-2.6,1.5-3.9,2.3
						c-5.8,3.9-10.8,8.5-15.6,13.6c-2.2,2.3-4.3,4.7-6.4,7.2h3C1134.5,869.7,1141.7,865,1151.2,862.6z"/>
					<path fill="#FEB238" d="M1158.4,798.4c0-0.1,0-0.2-0.1-0.3c0,0,0.1,0,0.1,0C1158.4,798.2,1158.4,798.3,1158.4,798.4z"/>
					<path fill="#FEB238" d="M1164.6,822.5c0.1-0.1,0.1-0.1,0.2-0.2c0,0,0,0.1,0,0.1C1164.8,822.5,1164.7,822.5,1164.6,822.5z"/>
					<path fill="#FEB238" d="M1142.2,863.5c0.1-0.1,0.1-0.1,0.2-0.2c0,0,0,0.1,0.1,0.1C1142.4,863.4,1142.3,863.4,1142.2,863.5z"/>
					<path fill="#FEB238" d="M1141.6,827.7c0-0.1,0-0.2-0.1-0.2c0,0,0.1,0,0.1,0C1141.7,827.5,1141.7,827.6,1141.6,827.7z"/>
					<path fill="#FEB238" d="M1121.8,862.1c0-0.1,0-0.2,0-0.2c0,0,0.1,0,0.1,0C1121.9,861.9,1121.8,862,1121.8,862.1z"/>
					<path fill="#FEB238" d="M1191.5,868.5c-0.1-0.2-0.4-0.3-0.6-0.4c-0.3-0.1-0.6-0.1-0.9,0c-1.1-0.2-2.2-0.2-3.2-0.2
						c-1.5,0-3,0-4.5,0.1c-7,0.6-13.6,2.3-20.2,4.4c-3.5,1.1-6.9,2.3-10.3,3.7h7.6c7.3-1.7,14.7-1.9,22.8,0.2c2.2,0.6,4.4,1,6.7,0.4
						c2.3-0.6,4.6-2.2,5.4-4.5C1194.8,870.4,1193.1,869.1,1191.5,868.5z"/>
					<path fill="#FEB238" d="M1230.9,843.5c-0.1-0.2-0.4-0.3-0.6-0.4c-0.3-0.1-0.6-0.1-0.9,0c-1.1-0.2-2.2-0.2-3.2-0.2
						c-1.5,0-3,0-4.5,0.1c-7,0.6-13.6,2.3-20.2,4.4c-3.5,1.1-7,2.4-10.4,3.7c3.6-2.2,7.2-4.4,10.6-7c4.2-3.2,8.3-6.6,12.2-10.2
						c5.1-4.7,9.9-9.7,13.8-15.4c0.9-1.2,1.6-2.5,2.3-3.8c0.5-0.9,1.1-1.9,1.5-2.9c0.2-0.3,0.3-0.5,0.4-0.8c0.1-0.2,0-0.5-0.1-0.7
						c0.2-1.7-0.1-3.8-1.9-4.2c-2.4-0.4-5,0.8-6.6,2.5c-1.6,1.7-2.3,3.8-2.9,6c-3.9,14.8-13.6,24-26.1,32c-3,1.9-6.1,3.7-9.1,5.6
						c-1,0.6-2,1.3-3,1.9c1-0.8,1.9-1.7,2.8-2.6c5.1-4.7,9.9-9.7,13.8-15.4c0.9-1.2,1.6-2.5,2.3-3.8c0.5-0.9,1.1-1.9,1.5-2.9
						c0.2-0.3,0.3-0.5,0.4-0.8c0.1-0.2,0-0.5,0-0.7c0.2-1.7-0.1-3.8-1.9-4.2c-2.4-0.4-5,0.8-6.6,2.5c-1.6,1.7-2.3,3.8-2.9,6
						c-3.9,14.5-13.3,23.7-25.6,31.7c-2.8,1.5-5.6,2.9-8.3,4.5c-2.2,1.2-4.4,2.5-6.6,3.9c-0.2,0.1-0.4,0.3-0.6,0.4
						c0.2-0.2,0.3-0.3,0.5-0.5c5.1-4.7,9.9-9.7,13.8-15.4c0.9-1.2,1.6-2.5,2.3-3.8c0.5-0.9,1.1-1.9,1.5-2.9c0.2-0.3,0.3-0.5,0.4-0.8
						c0.1-0.2,0-0.5,0-0.7c0.2-1.7-0.1-3.8-1.9-4.2c-2.4-0.4-5,0.8-6.6,2.5c-1.6,1.7-2.3,3.8-2.9,6c-2.6,9.8-7.8,17.2-14.7,23.4h8
						c4.1-2.3,8.1-5.5,12-7.9c5.8-3.5,11.7-6.9,17.8-10c13.2-6.9,25.9-10.7,40.7-6.9c2.2,0.6,4.4,1,6.7,0.4c2.3-0.6,4.6-2.2,5.4-4.5
						C1234.2,845.4,1232.5,844.1,1230.9,843.5z"/>
					<path fill="#FEB238" d="M1219.4,823.6c0-0.1,0.1-0.2,0.1-0.2c0,0,0.1,0,0.1,0C1219.6,823.4,1219.5,823.5,1219.4,823.6z"/>
					<path fill="#FEB238" d="M1213.3,847.7c0.1,0,0.2,0,0.3-0.1c0,0,0,0.1,0,0.1C1213.4,847.8,1213.3,847.7,1213.3,847.7z"/>
					<path fill="#FEB238" d="M1190.6,841.1c0-0.1,0-0.2,0.1-0.2c0,0,0.1,0,0.1,0.1C1190.7,841,1190.7,841,1190.6,841.1z"/>
					<path fill="#FEB238" d="M1156.7,861.6c0-0.1,0.1-0.2,0.1-0.2c0,0,0.1,0,0.1,0.1C1156.8,861.5,1156.7,861.6,1156.7,861.6z"/>
				</g>
			</g>
			<g>
				<path fill="#CFE4E5" d="M247.9,812.9c3.2,0.8,6,1.2,8.3,1.1c1,0,1.9-0.2,2.7-0.4c4.3,4.7,8.8,9.5,13.4,14.3
					c0.7,0.9,1.4,1.8,2.1,2.7l0.3-0.2c7.9,8.1,16.2,16.3,24.7,24.1c-2.1,0.2-5.4-0.2-10.3-1.6c-6.2-4.2-11-10.5-16.8-15.4
					c-8.5-7.6-18.4-16.3-30.3-16.8c-5.2-0.4-10.7,1.7-10.9,7.6c-0.4,6.9,4.8,13.1,10.1,17c8.2,6,18.9,8.9,28.9,10.4
					c6.8,1.1,13.8,1.3,20.7-0.1c3.2,0.8,6,1.2,8.3,1.1c0.8,0,1.6-0.1,2.3-0.3c12.4,11.3,25.3,22,38.2,30.9l4.2,0.3
					c-7.7-5.2-15.4-11-23.1-17.3c0.8-2.6,0.5-6.3-0.6-10.8c1.5-6.9,1.5-13.8,0.5-20.7c-1.4-10.1-4-20.7-9.9-29.1
					c-3.8-5.3-9.9-10.6-16.8-10.4c-6,0.2-8.1,5.6-7.8,10.8c0.3,11.9,8.9,21.9,16.3,30.6c4.9,5.8,11,10.7,15.2,17
					c1.5,5.5,1.7,8.9,1.3,11c-15.6-13-30.9-27.6-44.8-42.1c-0.4-0.6-0.9-1.2-1.3-1.8c0.7-2.6,0.4-6.3-0.6-10.6
					c1.5-6.9,1.5-13.8,0.5-20.7c-1.4-10.1-4-20.7-9.9-29.1c-3.8-5.3-9.9-10.6-16.8-10.4c-2.1,0.1-3.6,0.7-4.8,1.8
					c-1.4-4.2-2.7-8.5-3.9-12.8c2.5-1.2,4.9-4.3,7.3-8.4c5.8-4,10.5-9.1,14.5-14.8c5.9-8.3,11.3-17.9,12.7-28
					c0.8-6.5,0.1-14.5-5.2-19.1c-4.5-4-9.8-1.4-13.1,2.6c-7.9,8.9-8.5,22.1-9,33.5c-0.4,7.6,0.7,15.4-0.6,22.8
					c-3,5.7-5.4,8.3-7.2,9.4c-3.3-11.6-6.2-23.3-8.8-34.6c2-1.8,3.8-5.2,5.2-9.6c4.9-5.1,8.4-11.1,11.1-17.5c4-9.3,7.2-19.8,6.5-30
					c-0.5-6.5-3-14.2-9.1-17.5c-5.2-2.9-9.8,0.6-12.2,5.3c-5.9,10.4-3.7,23.4-1.8,34.6c1.2,7.5,3.9,14.9,4.3,22.4
					c-1.5,5.3-3,8.3-4.4,10c-2.2-10-4.2-19.8-5.9-29c-1.7-9.1-3.2-17.9-4.5-26.4c2.1-1.8,3.9-5.2,5.3-9.7
					c4.9-5.1,8.4-11.1,11.1-17.5c4-9.3,7.2-19.8,6.5-30c-0.5-6.5-3-14.2-9.1-17.5c-5.2-2.9-9.8,0.6-12.2,5.3
					c-5.9,10.4-3.7,23.4-1.8,34.6c1.2,7.5,3.9,14.9,4.3,22.4c-1.5,5.3-3,8.3-4.4,9.9c-4.1-26.6-6.6-49.1-7.9-62.1l0.5,0.6
					c2.1-1.7,3.9-5.2,5.4-9.8c4.9-5.1,8.4-11.1,11.1-17.5c4-9.3,7.2-19.8,6.5-30c-0.5-6.5-3-14.2-9.1-17.6
					c-5.2-2.9-9.8,0.6-12.2,5.3c-5.9,10.4-3.7,23.4-1.8,34.6c1.2,7.5,3.9,14.9,4.3,22.4c-1.6,5.7-3.2,8.7-4.7,10.3
					c-0.5-5.6-0.8-9.1-0.9-9.9l0.2,0c-0.2-2-0.6-3.9-1.1-5.8c1.3-6.9,1-13.8-0.1-20.6c-1.6-10-4.6-20.6-10.7-28.8
					c-4-5.2-10.2-10.3-17.1-9.9c-6,0.3-7.9,5.8-7.5,11c0.6,11.9,9.5,21.7,17.2,30.1c5,5.7,11.3,10.4,15.6,16.6
					c0.7,2.3,1.3,4.8,1.6,7.3l-0.2,0c0,0.3,1.5,20.2,5.4,49.2c-1.5-1.5-3.4-3.9-5.6-7.7c-1.5-7.4-0.6-15.2-1.2-22.7
					c-0.8-11.4-1.8-24.5-10-33.2c-3.4-3.9-8.8-6.3-13.1-2.2c-5.1,4.7-5.7,12.7-4.7,19.2c1.7,10.1,7.3,19.5,13.4,27.6
					c4.1,5.6,9,10.5,14.9,14.4c2.2,3.6,4.4,6.3,6.6,7.7c2.1,15.2,4.7,32.6,8.1,51c0.7,3.9,1.5,7.9,2.3,11.9c-2-0.8-4.8-2.7-8.7-6.9
					c-3.1-6.8-4.1-14.7-6.4-21.9c-3.4-10.9-7.4-23.4-17.4-30c-4.2-3-10-4.1-13.3,0.9c-3.9,5.8-2.6,13.7-0.1,19.8
					c4,9.4,11.6,17.3,19.4,23.8c5.3,4.5,11.2,8.2,17.8,10.5c3.3,3.3,6.4,5.6,9.1,6.2c4.4,21.8,10.2,45.7,17.5,68.4
					c-1.1,2-1.5,4.5-1.4,7c0.3,11.2,7.9,20.8,15,29.1c3.7,8.3,7.8,16.2,12.1,23.2c-5-5.4-9.8-10.7-14.3-15.7
					c-6.1-6.9-12-13.7-17.5-20.3c0.9-2.6,0.6-6.5-0.5-11.1c1.5-6.9,1.5-13.8,0.5-20.7c-1.4-10.1-4-20.7-9.9-29.1
					c-3.8-5.3-9.9-10.6-16.8-10.4c-6,0.2-8.1,5.6-7.8,10.8c0.3,11.9,8.9,21.9,16.3,30.6c4.9,5.8,11,10.7,15.2,17
					c1.4,5.3,1.7,8.6,1.4,10.8c-17.2-20.7-31-38.7-38.7-49.2l0.7,0.3c0.9-2.6,0.6-6.5-0.4-11.2c1.5-6.9,1.5-13.8,0.5-20.7
					c-1.4-10.1-4-20.7-9.9-29.1c-3.8-5.3-9.9-10.6-16.8-10.4c-6,0.2-8.1,5.6-7.8,10.8c0.3,11.9,8.9,21.9,16.3,30.6
					c4.9,5.8,11,10.7,15.2,17c1.5,5.7,1.7,9.1,1.3,11.2c-3.3-4.5-5.4-7.4-5.9-8.1l0.1-0.1c-1.2-1.6-2.5-3-3.9-4.4
					c-2.4-6.6-6.2-12.4-10.7-17.6c-6.6-7.8-14.5-15.3-24-19.2c-6.1-2.4-14-3.6-19.8,0.3c-4.9,3.3-3.8,9.1-0.7,13.3
					c6.7,9.9,19.3,13.7,30.2,17c7.2,2.3,15.1,3.1,21.9,6.2c1.8,1.6,3.6,3.4,5.1,5.4l-0.1,0.1c0.2,0.2,11.7,16.6,29.9,39.4
					c-2.1-0.5-4.9-1.6-8.8-3.8c-5.1-5.6-8.3-12.8-12.7-18.9c-6.6-9.3-14.2-20.1-25.6-23.4c-5-1.6-10.8-0.9-12.4,4.9
					c-2,6.7,1.7,13.9,5.9,18.9c6.6,7.8,16.3,13,25.7,16.8c6.4,2.7,13.1,4.4,20.2,4.7c3.7,1.9,7.1,3.1,9.7,3.2
					c9.6,12,20.8,25.5,33.2,39.5c2.6,3,5.3,6,8.1,9c-2.1,0.4-5.5,0.1-11-1.5c-6.2-4.2-11-10.5-16.8-15.4
					c-8.5-7.6-18.4-16.3-30.3-16.8c-5.2-0.4-10.7,1.7-10.9,7.6c-0.4,6.9,4.9,13.1,10.1,17c8.2,6,18.9,8.9,28.9,10.4
					C234.1,814.1,241,814.3,247.9,812.9z M257.9,799.3c4,4.2,8.4,8.2,11.6,13c1.2,4.6,1.6,7.7,1.5,9.8
					C266.2,815.3,261.9,807.6,257.9,799.3z"/>
				<path fill="#FFDCD8" d="M310.8,885.1c10.3-20.1,9.8-44.1,7.8-66.7c-3.5-38.8-12.1-80.2-40.9-106.4c-3.6-3.3-8.8-6.5-13.2-4.1
					c-1.4,0.8-2.4,2-3.4,3.3c-6.6,9.1-8.1,21.1-6.4,32.2c1.6,11.1,6.1,21.6,10.5,31.9c12.5,29.2,24.9,58.5,37.4,87.7
					c1.1,2.6,2.1,5.5,3.1,8.4c-13.2-29.3-30.5-56.7-51.2-81.3c-20.1-23.9-45.4-46.1-76.3-51.2c-6.6-1.1-14.6-0.7-18.1,5.1
					c-3.7,6.2,0.7,14.1,5.3,19.6c14,17,31.4,30.9,48.6,44.7c25.5,20.4,50.2,40.2,75.3,60.3c-34.4-22.1-73.2-43.5-112.1-46.2
					c-5.2-0.4-11-0.1-14.5,3.7c-3.9,4.2-3,11.1,0.4,15.7c3.4,4.5,8.7,7.2,13.9,9.5c38.5,17.2,80.2,25.6,121.7,33.2L310.8,885.1z"/>
			</g>
		</g>
		<g>
			<path fill="#4D5068" d="M948.8,421.3c-27.4,10.7-57.7,8.8-86.7,8.5c32.7-23.4,62.2-49.7,83.2-84.6
				c-49.4,39.8-97.9,88.3-165.5,91.2c13-6.8,27.6-14.4,35.7-27c-16.9-4.9-30.9,7.1-44.1,15.9c-10.4,7-24.2,15-36.9,16.1
				c-24.8,2.6-34.7-24.3-19.1-41.7c12.6-13.9,36-19.6,53.3-24.4c36-10.1,88.9-7.2,117.4-35c17.4-17,29.7-39.8,35.3-63.5
				c-26.7,36.4-53.1,68.8-99.1,78c-22.3,3.3-42.5,11.5-63.7,18.7c15.5-10.7,31.7-20.8,45.6-33.6c11.4-10.5,18.2-29.7,29.4-38.6
				c22.7-18.1,61.2-17.7,60-59.4c-17.2,16.6-36,31.4-53.8,47.3c13.4-33.7,17.3-69.7,17.6-105.7c-0.4,38.8-12.3,104.4-48.7,126
				c-4.7-29.6-7.6-62.2-8.7-92.4c-1.2-32.7,7.2-62.9,16.1-94c-24.9,25.4-30.9,62.9-32.3,96.8c-16.7-26.2-29.3-54.8-42.9-82.5
				c-8.2,32.3,7.3,57.8,27.8,80.9c19.8,22.3,42.7,80.7,24.4,108.7c-18.2,27.9-56.6,41.9-78.8,67.8c8.9-20.3,16.3-43.8,14.4-66.2
				c-23.5,23.6-20,50.3-25.2,79.5c-3.8,20.9-31.6,32.6-30,3c2-39.7,27.9-81,36-120.3c23.8-3.6,36.6-35.6,35.4-56.9
				c-15,11.4-23.3,28.6-32.8,44.4c3.3-27.7,2.6-54.4-2.4-82c-4.5-24.9-17-55.8-11.1-81.1c-16.1,32,0.1,79.5,0.7,113.8
				c0.4,21.9-1.1,45.1-7.4,66.1c-9.5-52.8-25.3-103.9-27.5-157.8c-10,27.4-8.9,57.6-4.2,86c-15.9-25.5-34.6-52.2-54-75.2
				c0.4,24.7,9.8,43.2,26.1,61.2c11.1,12.2,24.4,17.4,31.6,31.2c32.7,62.6,6.8,123.9,2.8,189.2c-10.7-4.8-13.9-23.7-14-33.5
				c-0.1-26.8,5.1-50.4-8.5-75.7c-8.5,23.9-6.6,53.2-0.1,77.3c-20.3-23.5-33.4-39.4-36.5-71.4c-1.8-18.8-0.1-14.8,11.5-29.2
				c12.3-15.3,15.9-36.5,11-55.2c-12.3,15.6-16.2,36.1-25.9,53.1c-1.8-19.3-1-38.7-2.4-58c-5.8,17-8,35.1-10.2,52.7
				c-9.1-34.5-14.1-71.7-31.8-103.4c-6.6,32.8,5.2,71.7,21.2,100.2c7,12.5,8.5,11.7,10.4,25.8c2.3,17.3,0.4,33.9,6.9,50.7
				c-41.7-21.4-58.3-68.7-68.9-111c-2.7,11.8-3,23.9-1.9,35.8c-10.1-13.5-22.3-28.5-38-35.3c3.5,31.8,35,43.8,47.7,68.4
				c11.8,23,29.5,39.6,52.9,50.5c19.6,9.2,31.5,21.7,47.2,37.7c10,10.2,23.3,23.9,19.9,39.2c-7.7-0.1-14.9-2.2-22.3-4.7l-7.1-2.3
				l-7.1-2.5c-2.4-0.9-4.7-1.7-7.1-2.5l-7.1-2.6l-3.6-1.3l-1.8-0.6l-0.9-0.3l-0.2-0.1l-0.1,0l-0.1,0l-0.5-0.1l-0.5-0.1l-7.2-2
				c0,0-0.1,0-0.1,0c0.3-1.4,0.4-2.9,0.5-4.5c0.1-1.6,0-3.3-0.2-4.9c-0.2-1.7-0.4-3.4-0.9-5.1c-0.4-1.7-0.9-3.4-1.5-5
				c-0.6-1.6-1.3-3.2-2.1-4.7c-0.8-1.5-1.6-3-2.5-4.3c-1.8-2.7-3.8-5-5.7-6.9c-1-0.9-1.9-1.8-2.8-2.5c-0.9-0.7-1.7-1.3-2.4-1.8
				c-0.7-0.5-1.3-0.8-1.7-1.1c-0.4-0.2-0.7-0.4-0.7-0.4s-0.1,0.3-0.2,0.7c-0.1,0.5-0.3,1.2-0.4,2c-0.1,0.9-0.2,1.9-0.3,3
				c-0.1,1.1-0.1,2.4,0,3.7c0.1,2.7,0.4,5.7,1.1,8.7c0.3,1.5,0.7,3.1,1.1,4.6c0.5,1.5,0.9,3,1.5,4.5c0.5,1.5,1.2,2.9,1.8,4.3
				c0.6,1.4,1.3,2.8,2,4.1c0.3,0.6,0.6,1.2,0.9,1.7c-2.7-0.9-5.4-1.9-7.9-3c-4.2-1.9-8.3-3.9-12-6.3c-3.6-2.5-7-5.3-10-8.5
				c-0.7-0.8-1.5-1.6-2.2-2.5c-0.7-0.9-1.3-1.8-2-2.6c-0.7-0.9-1.2-1.9-1.9-2.8l-0.9-1.4l-0.1-0.2l-0.4-0.9l-0.8-1.7
				c-0.3-0.6-0.6-1.2-0.8-1.7c-0.4-1-0.9-2-1.3-3.1c-0.4-1-0.9-2.2-1.3-3.3c-0.4-1.1-0.9-2.3-1.3-3.5c-1.7-4.7-3.5-9.6-5.8-14.5
				c-0.3-0.6-0.5-1.2-0.8-1.8l-0.9-1.8l-0.9-1.8l-0.5-0.9l-0.2-0.4l-0.1-0.2l-0.2-0.4c-0.7-1.1-1.3-2.1-2-3.3
				c-0.8-1.2-1.5-2.3-2.3-3.5c-3.1-4.4-6.4-8.5-9.9-12.3c-1.7-1.9-3.5-3.8-5.4-5.6c-1.8-1.8-3.6-3.6-5.5-5.4
				c-3.7-3.5-7.5-6.9-11.2-10.3c-3.8-3.4-7.5-6.8-11.3-10.3c2.5,4.5,5.2,8.8,8.1,13c2.9,4.2,5.9,8.4,8.8,12.4l4.4,6.1
				c0.7,1,1.4,2.1,2.1,3.1c0.7,1,1.4,2,2.1,3.1c2.7,4.1,5.3,8.3,7.5,12.5c0.5,1,1,2.1,1.5,3.1c0.5,1.1,1.1,2.3,1.6,3.4l0.2,0.4
				l0.1,0.2c0,0,0.1,0.2,0-0.1l0,0.1l0,0.1l0.3,0.8l0.6,1.6l0.6,1.6l0.6,1.7c0.4,1.1,0.8,2.2,1.2,3.4l1.1,3.5
				c0.5,1.8,1.1,3.7,1.6,5.5c-0.7-0.5-1.5-0.9-2.3-1.3c-0.3-0.2-0.5-0.3-0.8-0.5l-0.7-0.5c-0.5-0.3-1-0.6-1.5-0.9l-0.9-0.4
				c-4.2-2.2-8.4-4.1-12.7-5.7c-1.1-0.4-2.1-0.9-3.2-1.3c-1.1-0.4-2.2-0.8-3.3-1.2c-2.2-0.8-4.4-1.5-6.6-2.2l-3.4-1
				c-1.1-0.3-2.3-0.6-3.4-0.9c-1.1-0.3-2.3-0.6-3.5-0.8c-1.2-0.3-2.4-0.5-3.5-0.7c-1.2-0.2-2.4-0.5-3.6-0.7
				c-1.2-0.2-2.4-0.4-3.7-0.5c-2.5-0.3-5-0.5-7.7-0.4c1.6,2.1,3.3,4,5.1,5.8c0.9,0.9,1.8,1.7,2.7,2.6c0.9,0.8,1.9,1.7,2.8,2.4
				c1,0.8,1.9,1.5,2.9,2.2c1,0.7,2,1.4,3,2.1c1,0.7,2,1.3,3.1,2c1,0.6,2.1,1.3,3.1,1.8c4.3,2.3,8.7,4.3,13.2,6
				c4.6,1.6,9.3,2.9,14.1,3.9l-0.9-0.4c0.8,0.3,1.7,0.5,2.5,0.7l1.2,0.3c0.4,0.1,0.9,0.2,1.2,0.3c1.5,0.2,3,0.5,4.5,0.6l2.1,0.2
				c0.7,0.1,1.4,0.1,2.2,0.1c0.4,0,0.7,0.1,1,0.1l0.5,0c0.2,0.5,0.4,1.1,0.6,1.6c0.3,0.7,0.5,1.2,0.8,1.8l0.8,1.7l0.4,0.9l0.2,0.4
				l0.1,0.2l0,0.1c-0.3-0.6,0.4,0.8,0.4,0.7l0.1,0.1l1.1,1.8c0.8,1.2,1.4,2.4,2.3,3.6c0.8,1.2,1.7,2.3,2.5,3.4
				c0.9,1.1,1.8,2.2,2.8,3.3c3.8,4.3,8.2,8.1,13,11.2c4.8,3.1,9.8,5.6,14.9,7.6c5.1,2,10.2,3.6,15.3,4.8c3.4,0.8,6.8,1.6,10.2,2.3
				c-1.8,0-3.6-0.1-5.4,0c-3.3,0.1-6.7,0.3-9.9,0.9c-3.3,0.5-6.4,1.3-9.1,2.3c-1.4,0.5-2.6,1-3.7,1.6c-1.1,0.6-2,1.1-2.8,1.6
				c-0.8,0.5-1.3,1-1.7,1.3c-0.4,0.3-0.6,0.5-0.6,0.5s0.2,0.1,0.7,0.4c0.4,0.2,1.1,0.6,1.8,1c0.8,0.4,1.7,0.9,2.7,1.3
				c1,0.5,2.2,1,3.5,1.5c2.5,1,5.5,2,8.8,2.6c3.3,0.7,6.9,1,10.7,0.9c3.7-0.1,7.6-0.7,11.2-1.8c1.8-0.6,3.5-1.3,5.1-2.1
				c1.6-0.9,3-1.8,4.2-2.9c1.2-1,2.3-2.1,3-3.2c0.4-0.5,0.7-1,1-1.4c4.9,1.2,9.8,2.2,14.7,3.2l7.6,1.3c2.6,0.4,5.1,0.7,7.7,1
				c2.6,0.3,5.1,0.4,7.7,0.6c41.2,3.3,16.2,129.9,13.2,153.3c-5.2,40.6-10.6,82.6-20.6,122.3c-8.2,32.4-24.3,125.3-55.4,136.4
				c15,19.4,78.8,3.1,101.7,3.1c22.8,0,86.8,16.3,101.7-3.1c-56-23.8-57.8-140.6-65.6-196.8c-5-35.6-7.6-71.5-9.1-107.3
				c-1-23.1-22.1-89.9-2.6-107.1c14.4-12.7,28.3,5.1,41.4,11.6c16.8,8.4,41,11.2,58.6,3.8c-18.1-11.6-41.3-14-61.5-20.7
				c41.5-1.2,81.1-10.7,122.7-7.1c30.8,2.7,61.9,5.2,80.8-23.7C951.9,420,950.3,420.7,948.8,421.3z M531,304.4c0,0,0.1,0,0.1,0
				c0,0,0,0.1,0,0.1L531,304.4z"/>
			<g>
				<path fill="#7CB6B9" d="M570.2,131l-45.6,10.6L549.1,247l45.6-10.6L570.2,131z M542.9,192.9c-2.1-9.3,3.6-18.5,12.9-20.6
					c9.3-2.1,18.5,3.6,20.6,12.9c2.1,9.3-3.6,18.5-12.9,20.6C554.3,207.9,545,202.2,542.9,192.9z"/>
				<path fill="#B0D3D5" d="M561.9,240.4l18.3-4.2c-1.3-5.6,2.2-11.2,7.8-12.5l-18.1-78.1c-5.6,1.3-11.2-2.2-12.5-7.8l-18.3,4.3
					c1.3,5.6-2.2,11.2-7.8,12.5l18.1,78.1C555,231.3,560.6,234.7,561.9,240.4z"/>
				<circle fill="#7CB6B9" cx="559.6" cy="189" r="17.2"/>
				<g>
					<path fill="#B0D3D5" d="M570.9,188.5c0.4,2.5,0.3,5-0.2,7.5l-5.6,1.2c0.4-1.4,0.7-3,0.8-4.6c0.1-1.6,0.1-3-0.2-4.2
						c-0.2-1-0.5-1.6-0.8-2c-0.3-0.4-0.8-0.5-1.3-0.4c-0.4,0.1-0.7,0.3-0.8,0.7c-0.2,0.4-0.4,1-0.5,1.8c-0.2,0.8-0.4,1.9-0.6,3.3
						c-0.2,1.5-0.6,2.8-1.1,3.8c-0.5,1-1.1,1.8-1.8,2.4c-0.7,0.6-1.7,1-2.9,1.2c-1.9,0.4-3.4,0.1-4.7-0.9c-1.3-1-2.3-2.6-3.1-5
						l-2.3,0.5l-0.7-3.5l2.3-0.5c-0.3-2.3-0.3-4.6,0.3-7.1l5.2,1c-0.6,2.6-0.7,4.8-0.3,6.7c0.2,0.9,0.4,1.5,0.7,1.8
						c0.3,0.3,0.7,0.4,1.1,0.4c0.4-0.1,0.7-0.3,0.8-0.6c0.2-0.3,0.4-0.8,0.5-1.5c0.2-0.7,0.3-1.7,0.5-2.9c0.3-2.5,1-4.4,1.8-5.7
						c0.9-1.2,2.1-2,3.8-2.4c1.9-0.4,3.6-0.1,5,0.8c1.4,1,2.5,2.6,3.3,4.8l3.3-0.7l0.7,3.5L570.9,188.5z"/>
				</g>
			</g>
			<g>
				<path fill="#7CB6B9" d="M566.2,272.5l26.2-38.9l-89.9-60.5L476.3,212L566.2,272.5z M543.9,208.5c7.9,5.3,10,16,4.7,23.9
					c-5.3,7.9-16,10-23.9,4.7c-7.9-5.3-10-16-4.7-23.9C525.3,205.3,536,203.2,543.9,208.5z"/>
				<path fill="#B0D3D5" d="M497.6,186.7l-10.5,15.6c4.8,3.2,6.1,9.7,2.8,14.5l66.6,44.8c3.2-4.8,9.7-6.1,14.5-2.8l10.5-15.6
					c-4.8-3.2-6.1-9.7-2.8-14.5l-66.6-44.8C508.9,188.7,502.4,190,497.6,186.7z"/>
				<circle fill="#7CB6B9" cx="534.3" cy="222.8" r="17.3"/>
				<g>
					<path fill="#B0D3D5" d="M526.4,230.9c-2-1.6-3.6-3.4-5-5.6l3.3-4.7c0.7,1.3,1.5,2.6,2.6,3.9c1,1.3,2,2.3,3,2.9
						c0.8,0.6,1.5,0.9,2,1c0.5,0.1,0.9-0.1,1.2-0.6c0.2-0.3,0.3-0.7,0.2-1.1c-0.1-0.4-0.4-1-0.8-1.7c-0.4-0.7-1-1.6-1.8-2.8
						c-0.9-1.3-1.5-2.5-1.8-3.5c-0.3-1.1-0.4-2.1-0.3-3c0.1-0.9,0.6-1.9,1.3-2.9c1.1-1.5,2.5-2.4,4.1-2.6c1.6-0.2,3.5,0.4,5.6,1.6
						l1.4-1.9l2.9,2.1l-1.3,1.9c1.8,1.4,3.4,3.2,4.7,5.4l-4.5,2.8c-1.3-2.3-2.8-4-4.4-5.1c-0.8-0.5-1.3-0.8-1.8-0.8
						c-0.4,0-0.8,0.1-1,0.5c-0.2,0.3-0.3,0.6-0.2,1c0.1,0.4,0.3,0.9,0.7,1.5c0.4,0.6,0.9,1.5,1.7,2.5c1.5,2.1,2.3,3.9,2.5,5.4
						c0.2,1.5-0.2,2.9-1.2,4.3c-1.1,1.6-2.5,2.5-4.2,2.8c-1.7,0.3-3.6-0.1-5.7-1.3l-1.9,2.7l-2.9-2.1L526.4,230.9z"/>
				</g>
			</g>
			<g>
				<path fill="#7CB6B9" d="M881.3,496.2l0.2-46.8l-108.2-0.5l-0.2,46.8L881.3,496.2z M827.4,455.3c9.5,0,17.2,7.8,17.1,17.3
					c0,9.5-7.8,17.2-17.3,17.1c-9.5,0-17.2-7.8-17.1-17.3C810.2,462.9,817.9,455.3,827.4,455.3z"/>
				<path fill="#B0D3D5" d="M776.8,462.9l-0.1,18.8c5.8,0,10.4,4.7,10.4,10.5l80.2,0.4c0-5.8,4.7-10.4,10.5-10.4l0.1-18.8
					c-5.8,0-10.4-4.7-10.4-10.5l-80.2-0.4C787.3,458.2,782.6,462.9,776.8,462.9z"/>
				<circle fill="#7CB6B9" cx="827.3" cy="472.5" r="17.2"/>
				<g>
					<path fill="#B0D3D5" d="M825.3,483.7c-2.5-0.2-4.9-0.8-7.2-1.9l0.2-5.7c1.3,0.7,2.7,1.3,4.3,1.8c1.5,0.5,2.9,0.8,4.1,0.8
						c1,0,1.7-0.1,2.2-0.3c0.5-0.2,0.7-0.6,0.7-1.2c0-0.4-0.1-0.7-0.5-1c-0.3-0.3-0.9-0.6-1.6-0.9c-0.8-0.4-1.8-0.8-3.1-1.3
						c-1.4-0.6-2.6-1.2-3.5-1.9c-0.9-0.7-1.5-1.5-1.9-2.3c-0.4-0.8-0.6-1.9-0.5-3.1c0.1-1.9,0.7-3.4,2-4.4c1.3-1,3.1-1.6,5.5-1.8
						l0.1-2.4l3.6,0.1l-0.1,2.3c2.3,0.2,4.6,0.8,6.9,1.9l-2.2,4.9c-2.4-1.2-4.5-1.8-6.5-1.8c-0.9,0-1.6,0.1-1.9,0.3
						c-0.4,0.2-0.6,0.5-0.6,1c0,0.4,0.1,0.7,0.4,1c0.3,0.3,0.7,0.5,1.4,0.9c0.7,0.3,1.6,0.7,2.7,1.1c2.4,0.9,4.1,1.9,5.1,3.1
						c1,1.1,1.5,2.5,1.4,4.2c-0.1,1.9-0.7,3.5-2,4.7c-1.3,1.2-3.1,1.9-5.4,2.1l-0.1,3.3l-3.6-0.1L825.3,483.7z"/>
				</g>
			</g>
			<g>
				<path fill="#7CB6B9" d="M947.5,294.6L919,257.5l-85.8,65.9l28.5,37.1L947.5,294.6z M879.9,295.4c7.5-5.8,18.3-4.4,24.1,3.2
					c5.8,7.5,4.4,18.3-3.2,24.1c-7.5,5.8-18.3,4.4-24.1-3.2C871,312,872.4,301.2,879.9,295.4z"/>
				<path fill="#B0D3D5" d="M844.6,332.3l11.4,14.9c4.6-3.5,11.1-2.6,14.6,1.9l63.6-48.8c-3.5-4.6-2.6-11.1,1.9-14.6l-11.4-14.9
					c-4.6,3.5-11.1,2.6-14.6-1.9l-63.6,48.8C850,322.3,849.1,328.8,844.6,332.3z"/>
				<circle fill="#7CB6B9" cx="890.4" cy="309" r="17.2"/>
				<g>
					<path fill="#B0D3D5" d="M895.6,319.1c-2.1,1.4-4.4,2.4-6.9,2.9l-3.4-4.6c1.5-0.2,3-0.6,4.5-1.2c1.5-0.6,2.8-1.2,3.7-1.9
						c0.8-0.6,1.3-1.1,1.5-1.6c0.2-0.5,0.2-0.9-0.1-1.4c-0.2-0.3-0.5-0.5-1-0.5c-0.4,0-1,0.1-1.9,0.2c-0.8,0.2-1.9,0.5-3.2,0.8
						c-1.5,0.4-2.8,0.6-3.9,0.6c-1.1,0-2.1-0.2-2.9-0.7c-0.8-0.4-1.6-1.2-2.3-2.2c-1.1-1.5-1.5-3.1-1.1-4.7c0.4-1.6,1.4-3.2,3.3-4.8
						l-1.4-1.9l2.9-2.1l1.4,1.9c1.9-1.2,4.1-2.1,6.6-2.7l1.2,5.2c-2.6,0.5-4.7,1.4-6.2,2.5c-0.7,0.5-1.2,1-1.4,1.4
						c-0.2,0.4-0.1,0.8,0.1,1.1c0.2,0.3,0.5,0.5,0.9,0.5c0.4,0,0.9,0,1.6-0.2c0.7-0.1,1.7-0.4,2.9-0.8c2.4-0.7,4.4-1,5.9-0.7
						c1.5,0.3,2.7,1.1,3.7,2.5c1.1,1.6,1.6,3.2,1.3,4.9c-0.3,1.7-1.3,3.4-3,5l2,2.7l-2.9,2.1L895.6,319.1z"/>
				</g>
			</g>
			<g>
				<path fill="#7CB6B9" d="M560.9,419.7l45.4-11.4l-26.4-105l-45.4,11.4L560.9,419.7z M587.1,357.3c2.3,9.2-3.3,18.6-12.5,20.9
					c-9.2,2.3-18.6-3.3-20.9-12.5c-2.3-9.2,3.3-18.6,12.5-20.9C575.4,342.5,584.8,348.1,587.1,357.3z"/>
				<path fill="#B0D3D5" d="M567.2,310.1l-18.3,4.6c1.4,5.6-2,11.3-7.6,12.7l19.6,77.9c5.6-1.4,11.3,2,12.7,7.6l18.3-4.6
					c-1.4-5.6,2-11.3,7.6-12.7l-19.6-77.9C574.3,319.1,568.6,315.7,567.2,310.1z"/>
				<circle fill="#7CB6B9" cx="570.4" cy="361.5" r="17.3"/>
				<g>
					<path fill="#B0D3D5" d="M559.1,362.3c-0.4-2.5-0.4-5,0.1-7.5l5.6-1.3c-0.4,1.5-0.6,3-0.7,4.6c-0.1,1.6,0,3,0.2,4.2
						c0.2,1,0.5,1.6,0.8,2c0.3,0.4,0.8,0.5,1.3,0.4c0.4-0.1,0.6-0.3,0.8-0.7c0.2-0.4,0.4-1,0.5-1.8c0.2-0.8,0.3-1.9,0.5-3.3
						c0.2-1.5,0.5-2.8,1-3.9c0.5-1,1.1-1.8,1.8-2.4c0.7-0.6,1.7-1,2.9-1.3c1.9-0.4,3.4-0.1,4.7,0.8c1.3,1,2.4,2.6,3.1,4.9l2.3-0.5
						l0.8,3.5l-2.3,0.5c0.4,2.3,0.3,4.6-0.1,7.1l-5.3-0.9c0.5-2.6,0.6-4.8,0.2-6.7c-0.2-0.9-0.5-1.5-0.8-1.8
						c-0.3-0.3-0.7-0.4-1.1-0.3c-0.4,0.1-0.6,0.3-0.8,0.6c-0.2,0.3-0.3,0.8-0.5,1.6c-0.2,0.7-0.3,1.7-0.4,2.9
						c-0.3,2.5-0.9,4.4-1.7,5.7c-0.8,1.3-2.1,2.1-3.8,2.5c-1.9,0.4-3.6,0.2-5-0.8c-1.4-0.9-2.6-2.5-3.4-4.7l-3.3,0.7l-0.8-3.5
						L559.1,362.3z"/>
				</g>
			</g>
			<g>
				<path fill="#7CB6B9" d="M700,364.6l43.8,16.6l38.3-101.1l-43.8-16.6L700,364.6z M757.2,328.4c-3.4,8.9-13.3,13.4-22.2,10
					c-8.9-3.4-13.4-13.3-10-22.2c3.4-8.9,13.3-13.4,22.2-10C756,309.6,760.5,319.6,757.2,328.4z"/>
				<path fill="#B0D3D5" d="M767.8,278.4l-17.6-6.7c-2,5.4-8.1,8.1-13.5,6.1l-28.4,75c5.4,2,8.1,8.1,6.1,13.5l17.6,6.7
					c2-5.4,8.1-8.1,13.5-6.1l28.4-75C768.4,289.8,765.7,283.8,767.8,278.4z"/>
				<circle fill="#7CB6B9" cx="741.1" cy="322.3" r="17.2"/>
				<g>
					<path fill="#B0D3D5" d="M731.3,316.5c1.1-2.3,2.5-4.3,4.3-6.1l5.3,2.2c-1.1,1-2.2,2.1-3.2,3.4c-1,1.3-1.7,2.5-2.2,3.6
						c-0.4,0.9-0.5,1.6-0.5,2.1s0.3,0.9,0.8,1.1c0.4,0.1,0.7,0.1,1.1-0.1c0.4-0.2,0.9-0.6,1.5-1.2c0.6-0.6,1.4-1.4,2.3-2.4
						c1.1-1.1,2.1-2,3-2.6c1-0.6,1.9-0.9,2.8-1c0.9-0.1,2,0.1,3.1,0.6c1.8,0.7,2.9,1.8,3.4,3.4c0.5,1.5,0.5,3.5-0.2,5.8l2.2,0.9
						l-1.3,3.3l-2.2-0.9c-1,2.1-2.4,4-4.2,5.8l-3.8-3.8c1.9-1.8,3.2-3.6,4-5.4c0.3-0.9,0.5-1.5,0.4-1.9c-0.1-0.4-0.3-0.7-0.7-0.9
						c-0.4-0.1-0.7-0.1-1,0c-0.3,0.2-0.8,0.5-1.3,1c-0.5,0.5-1.2,1.2-2,2.2c-1.7,1.9-3.2,3.1-4.6,3.7c-1.4,0.6-2.9,0.5-4.5-0.1
						c-1.8-0.7-3-1.9-3.7-3.5c-0.7-1.6-0.7-3.5-0.1-5.8l-3.1-1.3l1.3-3.3L731.3,316.5z"/>
				</g>
			</g>
			<g>
				<path fill="#7CB6B9" d="M683.8,227.6l45.9-9.3l-21.6-106l-45.8,9.3L683.8,227.6z M712.8,166.5c1.9,9.3-4.1,18.4-13.4,20.3
					c-9.3,1.9-18.4-4.1-20.3-13.4c-1.9-9.3,4.1-18.4,13.4-20.3C701.8,151.2,710.9,157.2,712.8,166.5z"/>
				<path fill="#B0D3D5" d="M695,118.5l-18.4,3.7c1.1,5.7-2.5,11.2-8.1,12.3l16,78.6c5.6-1.1,11.2,2.5,12.3,8.1l18.4-3.7
					c-1.1-5.6,2.5-11.2,8.1-12.3l-16-78.6C701.7,127.8,696.2,124.2,695,118.5z"/>
				<circle fill="#7CB6B9" cx="695.9" cy="169.9" r="17.2"/>
				<g>
					<path fill="#B0D3D5" d="M684.6,170.2c-0.3-2.5-0.2-5,0.4-7.5l5.6-1c-0.4,1.4-0.7,3-0.9,4.6c-0.2,1.6-0.2,3,0,4.2
						c0.2,1,0.4,1.6,0.7,2.1c0.3,0.4,0.7,0.6,1.3,0.5c0.4-0.1,0.7-0.3,0.9-0.7c0.2-0.4,0.4-1,0.6-1.8c0.2-0.8,0.4-1.9,0.6-3.3
						c0.3-1.5,0.7-2.8,1.2-3.8c0.5-1,1.1-1.8,1.9-2.3c0.7-0.5,1.7-0.9,3-1.1c1.9-0.3,3.4,0,4.7,1c1.3,1,2.2,2.7,2.9,5.1l2.3-0.4
						l0.6,3.5l-2.3,0.4c0.3,2.3,0.1,4.6-0.5,7.1l-5.2-1.2c0.6-2.6,0.8-4.8,0.5-6.7c-0.2-0.9-0.4-1.5-0.7-1.9
						c-0.3-0.3-0.6-0.5-1.1-0.4c-0.4,0.1-0.7,0.3-0.9,0.6c-0.2,0.3-0.4,0.8-0.6,1.5c-0.2,0.7-0.4,1.7-0.6,2.9
						c-0.4,2.5-1.1,4.4-2,5.6c-0.9,1.2-2.2,2-3.9,2.3c-1.9,0.3-3.6,0-5-1c-1.4-1-2.4-2.6-3.1-4.9l-3.3,0.6l-0.6-3.5L684.6,170.2z"/>
				</g>
			</g>
			<g>
				<path fill="#7CB6B9" d="M694.5,243.9l32.9-33.2l-76.8-76.2l-32.9,33.2L694.5,243.9z M684.7,177c6.7,6.7,6.8,17.6,0.1,24.3
					c-6.7,6.7-17.6,6.8-24.3,0.1c-6.7-6.7-6.8-17.6-0.1-24.3C667,170.4,677.9,170.3,684.7,177z"/>
				<path fill="#B0D3D5" d="M643.3,147l-13.2,13.3c4.1,4.1,4.1,10.7,0.1,14.8l56.9,56.4c4.1-4.1,10.7-4.1,14.8-0.1l13.2-13.3
					c-4.1-4.1-4.1-10.7-0.1-14.8l-56.9-56.4C654,151,647.4,151,643.3,147z"/>
				<path fill="#7CB6B9" d="M660.3,177.1c6.7-6.8,17.6-6.8,24.4-0.1c6.8,6.7,6.8,17.6,0.1,24.4c-6.7,6.8-17.6,6.8-24.4,0.1
					C653.7,194.8,653.6,183.8,660.3,177.1z"/>
				<g>
					<path fill="#B0D3D5" d="M663.3,195.7c-1.7-1.9-2.9-4-3.8-6.4l4.1-4c0.4,1.4,1,2.9,1.8,4.3c0.8,1.4,1.5,2.6,2.4,3.4
						c0.7,0.7,1.3,1.1,1.7,1.3c0.5,0.2,0.9,0.1,1.3-0.3c0.3-0.3,0.4-0.6,0.4-1c0-0.4-0.2-1-0.5-1.8c-0.3-0.8-0.7-1.8-1.3-3.1
						c-0.6-1.4-1-2.7-1.1-3.8c-0.1-1.1,0-2.1,0.3-3c0.3-0.9,0.9-1.7,1.8-2.6c1.4-1.3,2.9-1.9,4.5-1.8s3.4,1,5.2,2.6l1.7-1.6l2.5,2.6
						l-1.7,1.6c1.5,1.7,2.7,3.8,3.6,6.2l-5,1.9c-0.9-2.5-2-4.4-3.3-5.8c-0.6-0.7-1.2-1.1-1.6-1.2c-0.4-0.1-0.8,0-1.1,0.3
						c-0.3,0.3-0.4,0.6-0.4,0.9c0,0.4,0.1,0.9,0.4,1.6c0.2,0.7,0.6,1.6,1.2,2.7c1,2.3,1.5,4.2,1.5,5.7c-0.1,1.5-0.7,2.9-1.9,4
						c-1.4,1.3-3,2-4.7,1.9c-1.7,0-3.5-0.8-5.3-2.3l-2.4,2.3L661,198L663.3,195.7z"/>
				</g>
			</g>
			<g>
				<path fill="#7CB6B9" d="M910.8,144.3l-44-16l-37,101.6l44,16L910.8,144.3z M854.2,181.3c3.2-8.9,13.1-13.5,22-10.3
					c8.9,3.2,13.5,13.1,10.3,22c-3.2,8.9-13.1,13.5-22,10.3C855.6,200.1,851,190.2,854.2,181.3z"/>
				<path fill="#B0D3D5" d="M844.3,231.4l17.7,6.4c2-5.4,8-8.2,13.4-6.2l27.4-75.3c-5.4-2-8.2-8-6.2-13.4l-17.7-6.4
					c-2,5.4-8,8.2-13.4,6.2L838,218.1C843.4,220,846.2,226,844.3,231.4z"/>
				<circle fill="#7CB6B9" cx="870.4" cy="187.2" r="17.2"/>
				<g>
					<path fill="#B0D3D5" d="M880.2,192.9c-1,2.3-2.4,4.4-4.2,6.2l-5.3-2.1c1.1-1,2.2-2.1,3.2-3.4c1-1.3,1.7-2.5,2.1-3.6
						c0.4-0.9,0.5-1.6,0.5-2.1c-0.1-0.5-0.3-0.9-0.8-1.1c-0.4-0.1-0.7-0.1-1.1,0.1c-0.4,0.2-0.8,0.6-1.4,1.2
						c-0.6,0.6-1.3,1.4-2.3,2.4c-1,1.2-2,2-3,2.6c-1,0.6-1.9,0.9-2.8,1c-0.9,0.1-2-0.1-3.1-0.6c-1.8-0.7-2.9-1.8-3.5-3.3
						c-0.5-1.5-0.5-3.5,0.2-5.8l-2.2-0.9l1.3-3.3l2.2,0.9c1-2.1,2.3-4,4.1-5.8l3.8,3.7c-1.9,1.8-3.2,3.7-3.9,5.5
						c-0.3,0.9-0.5,1.5-0.4,1.9c0.1,0.4,0.3,0.7,0.7,0.9c0.4,0.1,0.7,0.1,1,0c0.3-0.2,0.8-0.5,1.3-1c0.5-0.5,1.2-1.2,2-2.2
						c1.7-1.9,3.2-3.2,4.6-3.8c1.4-0.6,2.9-0.6,4.5,0.1c1.8,0.7,3,1.8,3.7,3.4c0.7,1.6,0.7,3.5,0.1,5.8l3.1,1.2l-1.3,3.3
						L880.2,192.9z"/>
				</g>
			</g>
			<g>
				<path fill="#7CB6B9" d="M951.6,226.7l-19.4-42.6l-98.5,44.8l19.4,42.6L951.6,226.7z M885.5,212.1c8.6-3.9,18.8-0.1,22.8,8.5
					s0.1,18.8-8.5,22.8c-8.6,3.9-18.8,0.1-22.8-8.5C873.1,226.3,876.9,216.1,885.5,212.1z"/>
				<path fill="#B0D3D5" d="M842.8,240.2l7.8,17.1c5.2-2.4,11.4-0.1,13.8,5.2l73-33.2c-2.4-5.2-0.1-11.4,5.2-13.8l-7.8-17.1
					c-5.2,2.4-11.4,0.1-13.8-5.2l-73,33.2C850.3,231.6,848,237.8,842.8,240.2z"/>
				<circle fill="#7CB6B9" cx="892.6" cy="227.8" r="17.2"/>
				<g>
					<path fill="#B0D3D5" d="M895.4,238.8c-2.4,0.9-4.8,1.3-7.4,1.3l-2.2-5.3c1.5,0.1,3,0.1,4.7-0.1c1.6-0.2,3-0.5,4.1-1
						c0.9-0.4,1.5-0.8,1.8-1.2c0.3-0.4,0.4-0.8,0.2-1.4c-0.1-0.3-0.4-0.6-0.8-0.7c-0.4-0.1-1-0.2-1.9-0.2c-0.8,0-1.9,0-3.3,0.1
						c-1.6,0.1-2.9,0-4-0.3c-1.1-0.3-2-0.7-2.7-1.3c-0.7-0.6-1.3-1.5-1.8-2.6c-0.7-1.7-0.8-3.4-0.1-4.8c0.7-1.5,2.1-2.8,4.3-4
						l-0.9-2.2l3.3-1.4l0.9,2.1c2.2-0.8,4.5-1.2,7-1.1l0,5.3c-2.6-0.1-4.8,0.3-6.6,1c-0.8,0.4-1.4,0.7-1.7,1.1
						c-0.3,0.4-0.3,0.7-0.1,1.1c0.1,0.4,0.4,0.6,0.7,0.7c0.3,0.1,0.9,0.2,1.6,0.2c0.7,0,1.7,0,3-0.1c2.5-0.2,4.5,0.1,5.9,0.7
						c1.4,0.6,2.4,1.7,3.1,3.3c0.8,1.8,0.8,3.5,0.2,5.1s-2,3-4.1,4.2l1.3,3.1l-3.3,1.4L895.4,238.8z"/>
				</g>
			</g>
		</g>
		<g>
			<g>
				<g id="XMLID_11_">
					<path id="XMLID_16_" fill="#FEB238" d="M799.6,881.2H677.9c-1.2,0-2.2-1.1-2.2-2.4v-30.1c0-1.3,1-2.4,2.2-2.4h121.7
						c1.2,0,2.2,1.1,2.2,2.4v30.1C801.8,880.2,800.8,881.2,799.6,881.2z"/>
					<path fill="#EF9F2B" d="M801.8,849.8v-1.1c0-1.3-1-2.4-2.2-2.4H677.9c-1.2,0-2.2,1.1-2.2,2.4v1.1H801.8z"/>
					<path fill="#EF9F2B" d="M799.9,876.1H677.6c-0.7,0-1.3-0.1-1.9-0.4v4.2c0,0.7,0.6,1.3,1.3,1.3h123.7c0.7,0,1.3-0.6,1.3-1.3
						v-4.2C801.2,876,800.6,876.1,799.9,876.1z"/>
					<rect id="XMLID_15_" x="696.2" y="846.3" fill="#FFE0AF" width="22.8" height="29.3"/>
					<rect id="XMLID_14_" x="723" y="846.3" fill="#FFE0AF" width="6" height="29.3"/>
					<rect id="XMLID_13_" x="687.6" y="846.3" fill="#FFE0AF" width="2.8" height="29.3"/>
					<rect id="XMLID_12_" x="794.5" y="846.3" fill="#FFE0AF" width="2.8" height="29.3"/>
				</g>
			</g>
			<g>
				<g id="XMLID_21_">
					<path id="XMLID_26_" fill="#FEB238" d="M935,881.2H813.3c-1.2,0-2.2-1.1-2.2-2.4v-30.1c0-1.3,1-2.4,2.2-2.4H935
						c1.2,0,2.2,1.1,2.2,2.4v30.1C937.2,880.2,936.2,881.2,935,881.2z"/>
					<path fill="#EF9F2B" d="M937.2,849.8v-1.1c0-1.3-1-2.4-2.2-2.4H813.3c-1.2,0-2.2,1.1-2.2,2.4v1.1H937.2z"/>
					<path fill="#EF9F2B" d="M935.3,876.1H812.9c-0.7,0-1.3-0.1-1.9-0.4v4.2c0,0.7,0.6,1.3,1.3,1.3h123.7c0.7,0,1.3-0.6,1.3-1.3
						v-4.2C936.6,876,936,876.1,935.3,876.1z"/>
					<rect id="XMLID_25_" x="831.6" y="846.3" fill="#FFE0AF" width="22.8" height="29.3"/>
					<rect id="XMLID_24_" x="858.4" y="846.3" fill="#FFE0AF" width="6" height="29.3"/>
					<rect id="XMLID_23_" x="823" y="846.3" fill="#FFE0AF" width="2.8" height="29.3"/>
					<rect id="XMLID_22_" x="929.9" y="846.3" fill="#FFE0AF" width="2.8" height="29.3"/>
				</g>
			</g>
			<g>
				<g id="XMLID_27_">
					<path id="XMLID_32_" fill="#FEB238" d="M805.9,848.5H684.2c-1.2,0-2.2-1.1-2.2-2.4v-30.1c0-1.3,1-2.4,2.2-2.4h121.7
						c1.2,0,2.2,1.1,2.2,2.4v30.1C808.2,847.4,807.2,848.5,805.9,848.5z"/>
					<path fill="#EF9F2B" d="M808.2,817v-1.1c0-1.3-1-2.4-2.2-2.4H684.2c-1.2,0-2.2,1.1-2.2,2.4v1.1H808.2z"/>
					<path fill="#EF9F2B" d="M806.3,843.3H683.9c-0.7,0-1.3-0.1-1.9-0.4v4.2c0,0.7,0.6,1.3,1.3,1.3h123.7c0.7,0,1.3-0.6,1.3-1.3
						v-4.2C807.6,843.2,806.9,843.3,806.3,843.3z"/>
					<rect id="XMLID_31_" x="702.6" y="813.5" fill="#FFE0AF" width="22.8" height="29.3"/>
					<rect id="XMLID_30_" x="729.3" y="813.5" fill="#FFE0AF" width="6" height="29.3"/>
					<rect id="XMLID_29_" x="694" y="813.5" fill="#FFE0AF" width="2.8" height="29.3"/>
					<rect id="XMLID_28_" x="800.9" y="813.5" fill="#FFE0AF" width="2.8" height="29.3"/>
				</g>
			</g>
			<g>
				<g id="XMLID_33_">
					<path id="XMLID_38_" fill="#FEB238" d="M794.7,814.5H673c-1.2,0-2.2-1.1-2.2-2.4v-30.1c0-1.3,1-2.4,2.2-2.4h121.7
						c1.2,0,2.2,1.1,2.2,2.4v30.1C796.9,813.4,795.9,814.5,794.7,814.5z"/>
					<path fill="#EF9F2B" d="M796.9,783v-1.1c0-1.3-1-2.4-2.2-2.4H673c-1.2,0-2.2,1.1-2.2,2.4v1.1H796.9z"/>
					<path fill="#EF9F2B" d="M795,809.3H672.7c-0.7,0-1.3-0.1-1.9-0.4v4.2c0,0.7,0.6,1.3,1.3,1.3h123.7c0.7,0,1.3-0.6,1.3-1.3v-4.2
						C796.3,809.2,795.7,809.3,795,809.3z"/>
					<rect id="XMLID_37_" x="691.3" y="779.5" fill="#FFE0AF" width="22.8" height="29.3"/>
					<rect id="XMLID_36_" x="718.1" y="779.5" fill="#FFE0AF" width="6" height="29.3"/>
					<rect id="XMLID_35_" x="682.7" y="779.5" fill="#FFE0AF" width="2.8" height="29.3"/>
					<rect id="XMLID_34_" x="789.6" y="779.5" fill="#FFE0AF" width="2.8" height="29.3"/>
				</g>
			</g>
			<g>
				<g id="XMLID_51_">
					<path id="XMLID_56_" fill="#FEB238" d="M798.4,782.5H676.7c-1.2,0-2.2-1.1-2.2-2.4v-30.1c0-1.3,1-2.4,2.2-2.4h121.7
						c1.2,0,2.2,1.1,2.2,2.4v30.1C800.7,781.4,799.7,782.5,798.4,782.5z"/>
					<path fill="#EF9F2B" d="M800.7,751v-1.1c0-1.3-1-2.4-2.2-2.4H676.7c-1.2,0-2.2,1.1-2.2,2.4v1.1H800.7z"/>
					<path fill="#EF9F2B" d="M798.8,777.3H676.4c-0.7,0-1.3-0.1-1.9-0.4v4.2c0,0.7,0.6,1.3,1.3,1.3h123.7c0.7,0,1.3-0.6,1.3-1.3
						v-4.2C800.1,777.2,799.4,777.3,798.8,777.3z"/>
					<rect id="XMLID_55_" x="695.1" y="747.5" fill="#FFE0AF" width="22.8" height="29.3"/>
					<rect id="XMLID_54_" x="721.8" y="747.5" fill="#FFE0AF" width="6" height="29.3"/>
					<rect id="XMLID_53_" x="686.5" y="747.5" fill="#FFE0AF" width="2.8" height="29.3"/>
					<rect id="XMLID_52_" x="793.4" y="747.5" fill="#FFE0AF" width="2.8" height="29.3"/>
				</g>
			</g>
			<g>
				<g id="XMLID_39_">
					<path id="XMLID_44_" fill="#FEB238" d="M942.8,845.5H821.1c-1.2,0-2.2-1.1-2.2-2.4v-30.1c0-1.3,1-2.4,2.2-2.4h121.7
						c1.2,0,2.2,1.1,2.2,2.4v30.1C945,844.4,944,845.5,942.8,845.5z"/>
					<path fill="#EF9F2B" d="M945,814v-1.1c0-1.3-1-2.4-2.2-2.4H821.1c-1.2,0-2.2,1.1-2.2,2.4v1.1H945z"/>
					<path fill="#EF9F2B" d="M943.1,840.3H820.8c-0.7,0-1.3-0.1-1.9-0.4v4.2c0,0.7,0.6,1.3,1.3,1.3h123.7c0.7,0,1.3-0.6,1.3-1.3
						v-4.2C944.5,840.2,943.8,840.3,943.1,840.3z"/>
					<rect id="XMLID_43_" x="839.4" y="810.5" fill="#FFE0AF" width="22.8" height="29.3"/>
					<rect id="XMLID_42_" x="866.2" y="810.5" fill="#FFE0AF" width="6" height="29.3"/>
					<rect id="XMLID_41_" x="830.9" y="810.5" fill="#FFE0AF" width="2.8" height="29.3"/>
					<rect id="XMLID_40_" x="937.7" y="810.5" fill="#FFE0AF" width="2.8" height="29.3"/>
				</g>
			</g>
			<g>
				<g id="XMLID_45_">
					<path id="XMLID_50_" fill="#FEB238" d="M935.3,813.5H813.6c-1.2,0-2.2-1.1-2.2-2.4v-30.1c0-1.3,1-2.4,2.2-2.4h121.7
						c1.2,0,2.2,1.1,2.2,2.4v30.1C937.5,812.4,936.5,813.5,935.3,813.5z"/>
					<path fill="#EF9F2B" d="M937.5,782v-1.1c0-1.3-1-2.4-2.2-2.4H813.6c-1.2,0-2.2,1.1-2.2,2.4v1.1H937.5z"/>
					<path fill="#EF9F2B" d="M935.6,808.3H813.3c-0.7,0-1.3-0.1-1.9-0.4v4.2c0,0.7,0.6,1.3,1.3,1.3h123.7c0.7,0,1.3-0.6,1.3-1.3
						v-4.2C937,808.2,936.3,808.3,935.6,808.3z"/>
					<rect id="XMLID_49_" x="831.9" y="778.5" fill="#FFE0AF" width="22.8" height="29.3"/>
					<rect id="XMLID_48_" x="858.7" y="778.5" fill="#FFE0AF" width="6" height="29.3"/>
					<rect id="XMLID_47_" x="823.4" y="778.5" fill="#FFE0AF" width="2.8" height="29.3"/>
					<rect id="XMLID_46_" x="930.2" y="778.5" fill="#FFE0AF" width="2.8" height="29.3"/>
				</g>
			</g>
		</g>
		<g>
			<g>
				<g>
					<g>
						<polygon fill="#B0D3D5" points="494,741.8 641.6,738.8 644.1,860.2 496.5,863.2 						"/>
						
							<rect x="494.8" y="775.7" transform="matrix(-0.9998 2.015422e-02 -2.015422e-02 -0.9998 1152.8269 1547.4021)" fill="#7CB6B9" width="147.6" height="7.6"/>
						<polygon fill="#B0D3D5" points="490.8,741.9 644.8,738.7 645.5,774.1 491.6,777.3 						"/>
						
							<rect x="555.1" y="740.3" transform="matrix(-0.9998 2.010177e-02 -2.010177e-02 -0.9998 1152.0626 1522.1901)" fill="#E7E7E7" width="26.6" height="53.2"/>
					</g>
					<g>
						<polygon fill="#7CB6B9" points="494.3,609.9 666.3,606.4 669,738.5 497,741.9 						"/>
						
							<rect x="495.2" y="646.6" transform="matrix(-0.9998 2.015255e-02 -2.015255e-02 -0.9998 1175.3722 1289.7522)" fill="#6CA8A8" width="172" height="8.3"/>
						<polygon fill="#7CB6B9" points="490.6,610 670.1,606.3 670.8,644.8 491.4,648.5 						"/>
					</g>
					<path fill="#D4DADC" d="M615.3,875.7l-131.9,2.7l-5.6-400.6c-0.1-3.1-1-6.2-3-8.7c-2.7-3.4-6.8-5.2-11-5.1l-12.3,0.2l-0.3-15.3
						l12.3-0.2c7.7-0.2,15.1,2.7,20.7,8.1c5.6,5.4,8.8,12.6,8.9,20.3l5.3,385.7l131.9-2.7l0,0C630.4,868.5,623.8,875.5,615.3,875.7z
						"/>
					<path fill="#3A3E54" d="M528.1,869.8c0.4,20.5-15.9,37.5-36.4,37.9c-20.5,0.4-37.5-15.9-37.9-36.4
						c-0.4-20.5,15.9-37.5,36.4-37.9C510.7,833,527.6,849.3,528.1,869.8z"/>
					<path fill="#D4DADC" d="M513,870.1c0.2,12.2-9.4,22.3-21.6,22.5c-12.2,0.2-22.3-9.4-22.5-21.6c-0.2-12.2,9.5-22.3,21.6-22.5
						C502.6,848.2,512.7,857.9,513,870.1z"/>
					<path fill="#3A3A57" d="M471.9,450.4c0-0.5-0.2-0.9-0.7-1.3c-0.5-0.4-1.1-0.5-1.7-0.5l-28.5,0.6v21.9l28.9-0.6
						c0.6,0,1.2-0.2,1.7-0.6c0.5-0.4,0.7-0.8,0.7-1.3L471.9,450.4z"/>
					<g>
						<g>
							<circle fill="#535353" cx="490.9" cy="854.6" r="2.5"/>
							<circle fill="#535353" cx="490.9" cy="886.5" r="2.5"/>
						</g>
						<g>
							<circle fill="#535353" cx="506.8" cy="870.6" r="2.5"/>
							<circle fill="#535353" cx="475" cy="870.5" r="2.5"/>
						</g>
						<g>
							<circle fill="#535353" cx="502.1" cy="881.8" r="2.5"/>
							<circle fill="#535353" cx="479.6" cy="859.3" r="2.5"/>
						</g>
						<g>
							<circle fill="#535353" cx="479.6" cy="881.8" r="2.5"/>
							<circle fill="#535353" cx="502.2" cy="859.3" r="2.5"/>
						</g>
					</g>
					<path fill="#E5E9EA" d="M504.6,870.3c0.2,7.6-5.9,13.9-13.5,14c-7.6,0.2-13.9-5.9-14-13.5c-0.2-7.6,5.9-13.9,13.5-14
						C498.2,856.7,504.5,862.7,504.6,870.3z"/>
				</g>
				<g>
					<path fill="#7CB6B9" d="M602.4,813.7c2.8,16.7-8.4,32.5-25.1,35.3c-16.7,2.8-32.5-8.4-35.3-25.1c-2.8-16.7,8.4-32.5,25.1-35.3
						C583.8,785.8,599.6,797.1,602.4,813.7z"/>
					<g>
						<path fill="#67A3A1" d="M572.5,798.7c4.5-0.4,8.9,0,13.2,1.1l1.4,10.1c-2.5-0.9-5.2-1.5-8.1-1.9c-2.9-0.4-5.3-0.5-7.4-0.2
							c-1.7,0.2-2.9,0.6-3.7,1.2c-0.7,0.5-1,1.3-0.9,2.3c0.1,0.7,0.5,1.2,1.1,1.6c0.6,0.4,1.7,0.8,3.1,1.2c1.4,0.4,3.3,0.8,5.8,1.3
							c2.7,0.6,4.9,1.4,6.7,2.3c1.7,1,3.1,2.1,4,3.5c0.9,1.4,1.5,3.1,1.9,5.3c0.5,3.3-0.2,6.1-2.1,8.3c-1.9,2.2-4.9,3.8-9.2,4.9
							l0.6,4.2l-6.3,0.9l-0.6-4.1c-4.1,0.4-8.3-0.1-12.6-1.2l2.4-9.2c4.5,1.3,8.5,1.7,11.9,1.2c1.6-0.2,2.7-0.6,3.3-1.1
							c0.6-0.5,0.9-1.1,0.7-1.9c-0.1-0.7-0.4-1.2-1-1.6c-0.5-0.4-1.4-0.7-2.7-1.1c-1.2-0.4-3-0.8-5.2-1.2c-4.4-0.9-7.7-2.2-9.8-3.8
							c-2.1-1.6-3.4-4-3.8-7c-0.5-3.4,0.2-6.3,2-8.7c1.9-2.4,4.8-4.2,8.9-5.3l-0.8-5.9l6.3-0.9L572.5,798.7z"/>
					</g>
				</g>
			</g>
			<g>
				<g>
					<path fill="#EF9F2B" d="M332.7,420.4c-3.2,1.5,14.1,24,18.2,25.4c8.5,2.8,21.9,1.2,30.9,1.7c17.4,0.9,34.9,2,52.3,2.9l2.3-4.9
						c1.9-4,5.8-6.7,10.2-7c5.5-0.3,11.2-4.2,16.8-2.4c5.3,1.6,9,5,3.9,9.2c4.4,6.7-2.6,10.1-2.7,16.9c0,0,0,0.1,0,0.1
						c-0.2,2.3-1.5,4.3-3.5,5.4c-12,6.8-22.5,2.9-35.1,3.7c-10.7,0.7-21.6,3.4-32.2,5c-13.7,2.1-27.3,4.7-41.1,6.6
						c-16.3,2.3-20.2-5.8-28.5-18.4c-1.6-2.4-19-30.8-21.1-29.9C303,434.7,332.7,420.4,332.7,420.4z"/>
					<g>
						
							<rect x="369.4" y="848.8" transform="matrix(0.9928 -0.1197 0.1197 0.9928 -101.8719 52.1807)" fill="#FEB238" width="28.1" height="50.8"/>
						<g>
							
								<rect x="289.1" y="839.2" transform="matrix(0.9916 0.129 -0.129 0.9916 114.0497 -31.8782)" fill="#FEB238" width="28.1" height="50.8"/>
							<path fill="#2D3244" d="M386.3,545.2c0-1.3,0-2.7-0.2-4c0-0.1,0-0.1,0-0.2c-0.3-0.4-0.7-0.8-0.1-0.2c0,0,0,0,0,0
								c-0.8-0.8-1.3-1.8-1.6-2.8l-85.1,0.3c-3.3,12.2-5.6,22.9-3,35.6c3.1,15.6,13.1,27.7,14.9,44.1c1.8,16.8-0.7,33.7-0.8,50.5
								c-0.2,66.9-14.2,131.6-25.6,197.2l33,4.3c1.7,0.2,20.1-66.1,21.5-70.7c11.9-40.6,26.1-80.4,30.6-122.7
								c4.6-43.3,11.1-86.4,16.8-129.6C386.5,546.4,386.3,545.8,386.3,545.2z"/>
							<path fill="#7CB6B9" d="M281.6,890l2.7-21l31.2,4.1l6.9-8.7l38.4,20.2c3.6,2.1,5.6,6.7,5,11.3l-0.5,3.8L281.6,890z"/>
						</g>
						<path fill="#3A3E54" d="M299.7,233c-17,4.9-28,21.4-25,38.9c2.3,13.5,10.2,31.5,29.6,54.8c0,0,37-30.4,37-30.4
							c2.8-2.3,4.4-12.2,5.7-15.6c2.8-7.8,8.3-15.1,9.9-23.4c2.7-13.9-17.1-23.8-28.1-26.2C319.3,228.9,309,230.4,299.7,233z"/>
						<path fill="#FEB238" d="M328.1,370.3c0,0-26,0.5-27.8-7.9c-4.9-22.1,15.5-78,15.5-78l33.1,8.9L328.1,370.3z"/>
						<path fill="#FEB238" d="M356,252.7c3,3.8,5.7,8.1,7.8,12.5c3.5,7.4-0.6,14,1.6,21c1.3,4,5.4,7,5.8,11.4c0.4,5.1-6,4-6.3,5.4
							c0,0-3.8,19.9-3.8,19.9c-0.9,4.6-5.5,7.5-10,6.2l-20.3-5.2c-9.4-2.7-15.3-12.1-13.4-21.7l1-5.4c0,0-2.2,2.9-6-7.7
							c-1.5-4.2-2.4-10.4,0.8-13.5c1.2-1.2,7.6-2.5,8.5-1.9c1.9,1.3,4.8,8.5,6.1,12.1c0.2,0.4,0.8,0.3,0.8-0.1
							C329.1,277.8,332.6,250.6,356,252.7z"/>
						<path fill="#3A3E54" d="M385,536.9c5.6,46.2,10.2,92.7,16.8,138.7c6,42.2,2.1,84.2,0.6,126.5c-0.2,4.9-1.6,73.6-3.3,73.8
							l-33.1,4c-5.1-66.4-7.6-132.5-23.9-197.4c-4.1-16.3-5.8-33.3-11.7-49.1c-5.8-15.4-18.4-24.7-25.3-39.1
							c-5.6-11.7-6-22.6-5.9-35.3L385,536.9z"/>
						<path fill="#FFDCD8" d="M289.5,355.6c-5.6-1.5-11.4,14.4-12.1,17.9c-2.4,11.5,1.7,22.7,2.4,34c1.2,17.9,3.4,35.8,4.8,53.7
							c2.7,35.3,6.5,70.6,9.8,105.9c0.7,7.7,55.9-9.4,93-14.1c2.7-0.9-0.9-40.8-1.1-44.3c-1.5-45.8-1.8-95.1-35.5-130.5
							c-2.2-2.3-21.4-19.8-19-23.1c-4.2,5.9-11.5,8.6-18.5,6.8C313.3,361.9,289.8,355.7,289.5,355.6z"/>
						<path fill="#7CB6B9" d="M366.5,904.4l0.4-21.1l31.4,0.6l5.9-9.4l40.4,15.8c3.8,1.7,6.3,6,6.2,10.7l-0.1,3.9L366.5,904.4z"/>
						<path fill="#4D5068" d="M351.5,244.1c1.2-0.4,2.3-0.5,3.5-0.3c6.6,1.1,9.7,9.9,5,14.7c-6.4,6.7-7.8,16.8-12.9,24.4
							c-7,10.5-18.4,11.2-30,13.2c-18.3,3.3-32.6-2.6-40.5-20.6c19.4-3.4,41.8-6.3,58.1-17.8C339.3,254.6,345.3,246,351.5,244.1z"/>
						<path fill="#EF9F2B" d="M338.8,325.6c0,0-18.7-4.6-23.6-14.4c0,0,16.4,21.8,23.6,19.1L338.8,325.6z"/>
					</g>
					<path fill="#F7CBC9" d="M331.8,355.1c0,0-21.1-4.9-29.2-18.6c0,0-14.4,16.2-15.8,19.8c-1.4,3.7,49,25.6,49,25.6L331.8,355.1z"
						/>
					<polygon fill="#F7CBC9" points="331.8,355.1 348.1,373.1 332,362.4 					"/>
					<path fill="#FEB238" d="M332.8,430.4c-3.2,1.5,14.1,24,18.2,25.4c8.5,2.8,21.9,1.2,30.9,1.7c17.4,0.9,34.9,2,52.3,2.9l2.3-4.9
						c1.9-4,5.8-6.7,10.2-7c5.5-0.3,11.2-4.2,16.8-2.4c5.3,1.6,9,5,3.9,9.2c4.4,6.7-2.6,10.1-2.7,16.9c0,0,0,0.1,0,0.1
						c-0.2,2.3-1.5,4.3-3.5,5.4c-12,6.8-22.5,2.9-35.1,3.7c-10.7,0.7-21.6,3.4-32.2,5c-13.7,2.1-27.3,4.7-41.1,6.6
						c-16.3,2.3-20.2-5.8-28.5-18.4c-1.6-2.4-19-30.8-21.1-29.9C303.2,444.7,332.8,430.4,332.8,430.4z"/>
					<path fill="#F7CBC9" d="M302.7,448.1l35-16.9l-18.6-49.6c-5.5-11.8-19.5-16.9-31.3-11.5h0c-11.8,5.5-16.9,19.5-11.5,31.3
						L302.7,448.1z"/>
				</g>
				<path fill="#3A3E54" d="M270.5,260.1c-20.6-11.2,5.9-46.1,22.3-48.4c12.2-1.8,18.3-1.5,24.6,9.9
					C325.8,236.6,289,270,270.5,260.1C270.6,260.1,270.5,260.1,270.5,260.1z"/>
			</g>
		</g>
		<g>
			<g>
				<g>
					<path id="XMLID_64_" fill="#FFDCD8" d="M353.4,118.9v77.4c0,9.8,7.9,17.7,17.7,17.7h8.1v18v23.9c0,1.9,2.3,2.7,3.5,1.3
						l44.8-43.3h52.9c9.8,0,17.7-7.9,17.7-17.7v-77.4c0-9.8-7.9-17.7-17.7-17.7H371C361.3,101.2,353.4,109.1,353.4,118.9z"/>
					<g>
						<g>
							<g>
								<path fill="#FFFFFF" d="M384.8,140.7c27.2,0,54.5,0,81.7,0c6.4,0,6.4-10,0-10c-27.2,0-54.5,0-81.7,0
									C378.4,130.7,378.4,140.7,384.8,140.7L384.8,140.7z"/>
							</g>
						</g>
						<g>
							<g>
								<path fill="#FFFFFF" d="M436.5,162.3c12.2,0,24.5,0,36.7,0c6.4,0,6.4-10,0-10c-12.2,0-24.5,0-36.7,0
									C430,152.3,430,162.3,436.5,162.3L436.5,162.3z"/>
							</g>
						</g>
						<g>
							<g>
								<path fill="#FFFFFF" d="M384.8,162.3c9.8,0,19.6,0,29.4,0c6.4,0,6.4-10,0-10c-9.8,0-19.6,0-29.4,0
									C378.4,152.3,378.4,162.3,384.8,162.3L384.8,162.3z"/>
							</g>
						</g>
						<g>
							<g>
								<path fill="#FFFFFF" d="M424.8,183.8c13.3,0,26.6,0,39.9,0c6.4,0,6.4-10,0-10c-13.3,0-26.6,0-39.9,0
									C418.4,173.8,418.4,183.8,424.8,183.8L424.8,183.8z"/>
							</g>
						</g>
					</g>
				</g>
			</g>
			<g>
				<path id="XMLID_63_" fill="#FFDCD8" d="M1075.7,136.4v77.4c0,9.8-7.9,17.7-17.7,17.7h-8.1v18v23.9c0,1.9-2.3,2.7-3.5,1.3
					l-44.8-43.3h-52.8c-9.8,0-17.7-7.9-17.7-17.7v-77.4c0-9.8,7.9-17.7,17.7-17.7H1058C1067.8,118.7,1075.7,126.6,1075.7,136.4z"/>
				<g>
					<g>
						<g>
							<path fill="#FFFFFF" d="M1044.3,148.2c-27.2,0-54.5,0-81.7,0c-6.4,0-6.4,10,0,10c27.2,0,54.5,0,81.7,0
								C1050.7,158.2,1050.7,148.2,1044.3,148.2L1044.3,148.2z"/>
						</g>
					</g>
					<g>
						<g>
							<path fill="#FFFFFF" d="M992.6,169.8c-12.2,0-24.5,0-36.7,0c-6.4,0-6.4,10,0,10c12.2,0,24.5,0,36.7,0
								C999,179.8,999,169.8,992.6,169.8L992.6,169.8z"/>
						</g>
					</g>
					<g>
						<g>
							<path fill="#FFFFFF" d="M1044.3,169.8c-9.8,0-19.6,0-29.4,0c-6.4,0-6.4,10,0,10c9.8,0,19.6,0,29.4,0
								C1050.7,179.8,1050.7,169.8,1044.3,169.8L1044.3,169.8z"/>
						</g>
					</g>
					<g>
						<g>
							<path fill="#FFFFFF" d="M1004.2,191.3c-13.3,0-26.6,0-39.9,0c-6.4,0-6.4,10,0,10c13.3,0,26.6,0,39.9,0
								C1010.7,201.3,1010.7,191.3,1004.2,191.3L1004.2,191.3z"/>
						</g>
					</g>
				</g>
			</g>
		</g>
		<g>
			<path fill="#7CB6B9" d="M792.2,642.2h-4.9v-4.9c0-1.5-1.2-2.8-2.8-2.8s-2.8,1.2-2.8,2.8v4.9h-4.9c-1.5,0-2.8,1.2-2.8,2.8
				c0,1.5,1.2,2.8,2.8,2.8h4.9v4.9c0,1.5,1.2,2.8,2.8,2.8s2.8-1.2,2.8-2.8v-4.9h4.9c1.5,0,2.8-1.2,2.8-2.8
				C795,643.5,793.7,642.2,792.2,642.2z"/>
			<path fill="#7CB6B9" d="M219,449.9h-4.9V445c0-1.5-1.2-2.8-2.8-2.8c-1.5,0-2.8,1.2-2.8,2.8v4.9h-4.9c-1.5,0-2.8,1.2-2.8,2.8
				c0,1.5,1.2,2.8,2.8,2.8h4.9v4.9c0,1.5,1.2,2.8,2.8,2.8c1.5,0,2.8-1.2,2.8-2.8v-4.9h4.9c1.5,0,2.8-1.2,2.8-2.8
				C221.8,451.2,220.5,449.9,219,449.9z"/>
			<path fill="#7CB6B9" d="M1193.3,409.3h-4.9v-4.9c0-1.5-1.2-2.8-2.8-2.8c-1.5,0-2.8,1.2-2.8,2.8v4.9h-4.9c-1.5,0-2.8,1.2-2.8,2.8
				c0,1.5,1.2,2.8,2.8,2.8h4.9v4.9c0,1.5,1.2,2.8,2.8,2.8c1.5,0,2.8-1.2,2.8-2.8v-4.9h4.9c1.5,0,2.8-1.2,2.8-2.8
				C1196,410.5,1194.8,409.3,1193.3,409.3z"/>
			<path fill="#7CB6B9" d="M589.2,552.8h-4.9v-4.9c0-1.5-1.2-2.8-2.8-2.8c-1.5,0-2.8,1.2-2.8,2.8v4.9h-4.9c-1.5,0-2.8,1.2-2.8,2.8
				c0,1.5,1.2,2.8,2.8,2.8h4.9v4.9c0,1.5,1.2,2.8,2.8,2.8c1.5,0,2.8-1.2,2.8-2.8v-4.9h4.9c1.5,0,2.8-1.2,2.8-2.8
				C592,554.1,590.8,552.8,589.2,552.8z"/>
			<path fill="#FFD9A0" d="M836.3,551.4l-3.5,3.5l-3.5-3.5c-1.1-1.1-2.8-1.1-3.9,0c-1.1,1.1-1.1,2.9,0,3.9l3.5,3.5l-3.5,3.5
				c-1.1,1.1-1.1,2.8,0,3.9c1.1,1.1,2.8,1.1,3.9,0l3.5-3.5l3.5,3.5c1.1,1.1,2.8,1.1,3.9,0c1.1-1.1,1.1-2.8,0-3.9l-3.5-3.5l3.5-3.5
				c1.1-1.1,1.1-2.8,0-3.9C839.1,550.3,837.4,550.3,836.3,551.4z"/>
			<path fill="#FFD9A0" d="M614.6,490l-3.5,3.5l-3.5-3.5c-1.1-1.1-2.8-1.1-3.9,0c-1.1,1.1-1.1,2.8,0,3.9l3.5,3.5l-3.5,3.5
				c-1.1,1.1-1.1,2.8,0,3.9c1.1,1.1,2.8,1.1,3.9,0l3.5-3.5l3.5,3.5c1.1,1.1,2.8,1.1,3.9,0c1.1-1.1,1.1-2.8,0-3.9l-3.5-3.5l3.5-3.5
				c1.1-1.1,1.1-2.8,0-3.9C617.4,488.9,615.7,488.9,614.6,490z"/>
			<path fill="#FFD9A0" d="M211.4,366.4l-3.5,3.5l-3.5-3.5c-1.1-1.1-2.8-1.1-3.9,0c-1.1,1.1-1.1,2.8,0,3.9l3.5,3.5l-3.5,3.5
				c-1.1,1.1-1.1,2.8,0,3.9c1.1,1.1,2.8,1.1,3.9,0l3.5-3.5l3.5,3.5c1.1,1.1,2.8,1.1,3.9,0c1.1-1.1,1.1-2.8,0-3.9l-3.5-3.5l3.5-3.5
				c1.1-1.1,1.1-2.8,0-3.9C214.2,365.3,212.5,365.3,211.4,366.4z"/>
			<path fill="#FFD9A0" d="M1185.5,344.4l-3.5,3.5l-3.5-3.5c-1.1-1.1-2.8-1.1-3.9,0c-1.1,1.1-1.1,2.9,0,3.9l3.5,3.5l-3.5,3.5
				c-1.1,1.1-1.1,2.8,0,3.9c1.1,1.1,2.8,1.1,3.9,0l3.5-3.5l3.5,3.5c1.1,1.1,2.8,1.1,3.9,0c1.1-1.1,1.1-2.8,0-3.9l-3.5-3.5l3.5-3.5
				c1.1-1.1,1.1-2.8,0-3.9C1188.3,343.3,1186.6,343.3,1185.5,344.4z"/>
			<path fill="#FFDCD8" d="M244.8,409.8c0,2.8-2.3,5.2-5.2,5.2c-2.8,0-5.2-2.3-5.2-5.2c0-2.8,2.3-5.2,5.2-5.2
				C242.5,404.7,244.8,407,244.8,409.8z"/>
			<path fill="#FFDCD8" d="M556.6,504.4c0,2.8-2.3,5.2-5.2,5.2c-2.8,0-5.2-2.3-5.2-5.2c0-2.8,2.3-5.2,5.2-5.2
				C554.2,499.3,556.6,501.6,556.6,504.4z"/>
			<path fill="#FFDCD8" d="M840,612.8c0,2.8-2.3,5.2-5.2,5.2c-2.8,0-5.2-2.3-5.2-5.2c0-2.8,2.3-5.2,5.2-5.2
				C837.7,607.7,840,610,840,612.8z"/>
			<path fill="#7CB6B9" d="M864.8,92.7l1.8,4.6l-4.6,1.8c-1.4,0.6-2.1,2.2-1.6,3.6c0.6,1.4,2.2,2.1,3.6,1.6l4.6-1.8l1.8,4.6
				c0.6,1.4,2.2,2.1,3.6,1.6c1.4-0.6,2.1-2.2,1.6-3.6l-1.8-4.6l4.6-1.8c1.4-0.6,2.1-2.2,1.6-3.6c-0.6-1.4-2.2-2.1-3.6-1.6l-4.6,1.8
				l-1.8-4.6c-0.6-1.4-2.2-2.1-3.6-1.6C865,89.7,864.3,91.3,864.8,92.7z"/>
			<path fill="#FFD9A0" d="M764.2,85.2l4.5,2l-2,4.5c-0.6,1.4,0,3,1.5,3.7c1.4,0.6,3.1,0,3.7-1.5l1.9-4.5l4.5,2c1.4,0.6,3,0,3.7-1.4
				c0.6-1.4,0-3-1.5-3.7l-4.5-2l2-4.5c0.6-1.4,0-3-1.4-3.7c-1.4-0.6-3.1,0-3.7,1.4l-2,4.5l-4.5-2c-1.4-0.6-3,0-3.7,1.5
				C762.1,83,762.7,84.6,764.2,85.2z"/>
			<path fill="#FFDCD8" d="M819.9,59.1c2.6-1.1,5.6,0.2,6.7,2.9c1,2.6-0.2,5.7-2.9,6.7c-2.6,1-5.6-0.2-6.7-2.9
				C815.9,63.1,817.2,60.1,819.9,59.1z"/>
			<circle fill="#FFDCD8" cx="1216.1" cy="378.6" r="5.2"/>
		</g>
		<g>
			<g>
				<g id="XMLID_5_">
					<path id="XMLID_10_" fill="#FEB238" d="M940.5,489.6H820c-1.2,0-2.2-1.1-2.2-2.4v-30.9c0-1.4,1-2.5,2.2-2.5h120.5
						c1.2,0,2.2,1.1,2.2,2.5v30.9C942.7,488.5,941.7,489.6,940.5,489.6z"/>
					<path fill="#EF9F2B" d="M942.7,457.3v-1.1c0-1.4-1-2.5-2.2-2.5H820c-1.2,0-2.2,1.1-2.2,2.5v1.1H942.7z"/>
					<path fill="#EF9F2B" d="M940.8,484.3H819.7c-0.7,0-1.3-0.1-1.9-0.4v4.3c0,0.8,0.6,1.4,1.2,1.4h122.4c0.7,0,1.2-0.6,1.2-1.4
						v-4.3C942.1,484.2,941.4,484.3,940.8,484.3z"/>
					<rect id="XMLID_9_" x="838.1" y="453.8" fill="#FFE0AF" width="22.6" height="30.1"/>
					<rect id="XMLID_8_" x="864.6" y="453.8" fill="#FFE0AF" width="5.9" height="30.1"/>
					<rect id="XMLID_7_" x="829.6" y="453.8" fill="#FFE0AF" width="2.8" height="30.1"/>
					<rect id="XMLID_6_" x="935.4" y="453.8" fill="#FFE0AF" width="2.8" height="30.1"/>
				</g>
			</g>
			<g>
				<g>
					<rect x="966.5" y="842.5" fill="#7CB6B9" width="28.4" height="27.9"/>
					<path fill="#FFDCD8" d="M1001.8,890.7l-0.9-24.6l-28.7,1.1l-7.5-10.9l-49.8,19c-4.7,2-7.8,7.1-7.6,12.6l0.2,4.5L1001.8,890.7z"
						/>
				</g>
				<path fill="#67A3A1" d="M1107.6,422h-3.6v-39c0,0-39.3,43.8-40.4,45.1c-9.3,10.4-28.3,17.7-40,25c-21.6,13.5-43.3,27-64.9,40.6
					c-0.1,0-0.1,0.1-0.2,0.1c-0.2-0.1-0.3-0.2-0.5-0.3l-16-8.1c-2.1-1.1-4.8-0.2-5.8,1.9c-1.1,2.1-0.2,4.7,1.9,5.8
					c3,1.5,6,8.2,7.1,11.9c-7.3,0.1-15.6,1.4-23.5,2.4c-9.4,1.3-22.9-3.2-30.7,2.5c-8,5.8,7,8,10.6,8.7c19.7,3.4,40.6,5.3,60.1-1.3
					c19-6.4,36-17.5,54.1-26c19.9-9.4,40.1-19,59.1-30.3C1093.6,449.8,1112.1,444,1107.6,422z"/>
				<g>
					
						<rect x="1128.8" y="828.7" transform="matrix(0.8444 -0.5357 0.5357 0.8444 -273.5726 743.358)" fill="#7CB6B9" width="28.4" height="27.9"/>
					<path fill="#FFDCD8" d="M1179.2,860.3l-13.9-20.3l-23.6,16.3l-12.2-5.2l-31.9,42.7c-2.9,4.3-2.8,10.1,0.4,14.7l2.6,3.7
						L1179.2,860.3z"/>
				</g>
				<g>
					<path fill="#7CB6B9" d="M1099.7,398.8c0,0,28.9,4,32.1-5.1c8.4-24-6.9-89.1-6.9-89.1l-38.1,5.5L1099.7,398.8z"/>
					<path fill="#4D5068" d="M1078.1,278.7c0,0-11.8-12.9-4-19.8c7.8-6.9,2.3-17.4,19.7-13.4c17.3,4,18,7.7,27.6,11.9
						c9.6,4.2,25.9,10.2,29,27c3.1,16.8-20,51.2-20,51.2L1078.1,278.7z"/>
					<path fill="#7CB6B9" d="M1084.1,263.9c-3.9,3.8-7.5,8.2-10.3,12.9c-4.8,7.8-1.2,15.8-4.6,23.3c-1.9,4.3-7,7.1-8,11.9
						c-1.2,5.6,6.2,5.3,6.3,6.8c0,0,1.6,22.7,1.6,22.7c0.4,5.3,5.2,9.1,10.4,8.3c0,0,23.3-3,23.4-3.1c14.3-1.9,13.9-18.4,18.7-28.5
						c4.2-8.8,17.5-12.8,7.4-23.1c-1.3-1.3-8.2-3.8-9.3-3.2c-2.3,1.2-6.5,8.8-8.4,12.6c-0.2,0.4-0.9,0.3-0.9-0.2
						C1110.8,295.5,1110.6,264.7,1084.1,263.9z"/>
					<path fill="#4D5068" d="M1066.1,322.3c0,0-4.3,18-1.2,22.2c4.6,6.1,5.2,9.5,12.2,8.9c7-0.5,36.7-0.7,38.2-17.4
						c0.2-2.4,1.6-5.4,1.3-7.8c-0.4-2.5-2.1-2.9-2.6-4.8c-1-3.6-0.1-7.5,0.4-11.1c0.6-3.8,6.2-21.3,2.7-24.1
						c-3-2.4-6.7,1.6-7.2,10.6c-0.5,9-2.4,22.4-10.1,22.6C1092.1,321.5,1074.6,312.4,1066.1,322.3z"/>
					<path fill="#4D5068" d="M1074.8,274.5c0,0,19.4,19.4,32.5,17c13.1-2.4,11.4-16.9,11.4-16.9S1075.5,243.6,1074.8,274.5z"/>
				</g>
				<path fill="#3A3C4E" d="M1106.2,543.1h-84.9l-9.5,42.2c-5.4,15.6-10.9,31.2-16.3,46.8c-8.8,25.1-20.7,47.8-23.1,74.7
					c-1.6,17.3-2.6,34.8-3.9,52.1c-0.4,5.9-5.9,89.4-7,89.4c0,0,37.3,0,37.3,0c-0.3,0,28.5-162.8,37.4-175.3
					c17.3-24.4,37.3-47,54.5-71.6l15.5-29.8V543.1z"/>
				<path fill="#4D5068" d="M1102.6,543.1c0,0,5.4,26.1,0,43c-3.8,11.8-12,20.2-12.9,33c-0.6,8.9,2.3,19.9,3.1,29
					c1.2,13.3-0.7,34.3,4.4,46.8c0.1,0.1,58.3,140.6,58.3,140.6l-31.5,9.4l-68.2-122.6c-6.9-19.8-13.7-39.7-20.7-59.5
					c-7.6-21.8-19.6-42.2-24.6-64.9c-1.2-5.6-3-54.7,3.9-54.7C1014.4,543.1,1102.6,543.1,1102.6,543.1z"/>
				<path fill="#FFDCD8" d="M1140.1,366v-4.9c-13.7,11.6-33.7,10.7-52,9.4c-7.6,11.2-18.6,22.3-22.8,31.1
					c-11.7,24.5-17.8,51.3-28.4,76.2c-10.7,25.3-21.7,50.4-32.8,75.5c0,0,102.2,4.5,102.2,4.5c13-5,16.3-44.8,19.6-56.6
					c7.1-25.3,15.9-50.4,19.1-76.6C1147.4,404,1140.1,386,1140.1,366z"/>
				<path fill="#7CB6B9" d="M1107.6,436h-3.6v-39.6c0,0-39.3,43.8-40.4,45.1c-9.3,10.4-28.3,17.7-40,25
					c-21.6,13.5-43.3,27-64.9,40.6c-0.1,0-0.1,0.1-0.2,0.1c-0.2-0.1-0.3-0.2-0.5-0.3l-16-8.1c-2.1-1.1-4.8-0.2-5.8,1.9
					c-1.1,2.1-0.2,4.7,1.9,5.8c3,1.5,6,8.2,7.1,11.9c-7.3,0.1-15.6,1.4-23.5,2.4c-9.4,1.3-22.9-3.2-30.7,2.5c-8,5.8,7,8,10.6,8.7
					c19.7,3.4,40.6,5.3,60.1-1.3c19-6.4,36-17.5,54.1-26c19.9-9.4,40.1-18.7,59.1-30C1093.6,463.4,1112.1,457,1107.6,436z"/>
				<path fill="#F7CBC9" d="M1100,464.4l-35.3-36.3l35.1-34.1c6.9-6.7,17.9-6.5,24.6,0.4l11.1,11.4c6.7,6.9,6.5,17.9-0.4,24.5
					L1100,464.4z"/>
				<g>
					<g id="XMLID_17_">
						<path id="XMLID_20_" fill="#FEB238" d="M951.6,522.4H831.1c-1.2,0-2.2-1.1-2.2-2.4V489c0-1.4,1-2.5,2.2-2.5h120.5
							c1.2,0,2.2,1.1,2.2,2.5v30.9C953.8,521.3,952.8,522.4,951.6,522.4z"/>
						<path fill="#EF9F2B" d="M953.8,490.1V489c0-1.4-1-2.5-2.2-2.5H831.1c-1.2,0-2.2,1.1-2.2,2.5v1.1H953.8z"/>
						<path fill="#EF9F2B" d="M951.9,517.1H830.8c-0.7,0-1.3-0.1-1.9-0.4v4.3c0,0.8,0.6,1.4,1.2,1.4h122.4c0.7,0,1.2-0.6,1.2-1.4
							v-4.3C953.2,517,952.6,517.1,951.9,517.1z"/>
						<rect id="XMLID_19_" x="849.2" y="486.6" fill="#FFE0AF" width="22.6" height="30.1"/>
						<rect id="XMLID_18_" x="875.8" y="486.6" fill="#FFE0AF" width="5.9" height="30.1"/>
						<rect id="XMLID_3_" x="840.7" y="486.6" fill="#FFE0AF" width="2.8" height="30.1"/>
						<rect id="XMLID_4_" x="946.6" y="486.6" fill="#FFE0AF" width="2.8" height="30.1"/>
					</g>
				</g>
				<g>
					<g id="XMLID_57_">
						<path id="XMLID_62_" fill="#FEB238" d="M953.5,454.7H833c-1.2,0-2.2-1.1-2.2-2.4v-30.9c0-1.4,1-2.5,2.2-2.5h120.5
							c1.2,0,2.2,1.1,2.2,2.5v30.9C955.7,453.6,954.7,454.7,953.5,454.7z"/>
						<path fill="#EF9F2B" d="M955.7,422.4v-1.1c0-1.4-1-2.5-2.2-2.5H833c-1.2,0-2.2,1.1-2.2,2.5v1.1H955.7z"/>
						<path fill="#EF9F2B" d="M953.8,449.4H832.6c-0.7,0-1.3-0.1-1.9-0.4v4.3c0,0.8,0.6,1.4,1.2,1.4h122.4c0.7,0,1.2-0.6,1.2-1.4
							V449C955.1,449.3,954.4,449.4,953.8,449.4z"/>
						<rect id="XMLID_61_" x="851.1" y="418.9" fill="#FFE0AF" width="22.6" height="30.1"/>
						<rect id="XMLID_60_" x="877.6" y="418.9" fill="#FFE0AF" width="5.9" height="30.1"/>
						<rect id="XMLID_59_" x="842.6" y="418.9" fill="#FFE0AF" width="2.8" height="30.1"/>
						<rect id="XMLID_58_" x="948.4" y="418.9" fill="#FFE0AF" width="2.8" height="30.1"/>
					</g>
				</g>
				<path fill="#7CB6B9" d="M952.4,526c0,0-35.9-23.6-22.6-26.7c13.3-3.1,31.8,17.9,31.8,17.9l-9,5.1"/>
			</g>
		</g>
	</g>
</g>
</svg>
